<?xml version="1.0" standalone="no"?>
<!DOCTYPE svg PUBLIC "-//W3C//DTD SVG 20010904//EN"
 "http://www.w3.org/TR/2001/REC-SVG-20010904/DTD/svg10.dtd">
<svg version="1.0" xmlns="http://www.w3.org/2000/svg"
 width="287.000000pt" height="324.000000pt" viewBox="0 0 287.000000 324.000000"
 preserveAspectRatio="xMidYMid meet">

<g transform="translate(0.000000,324.000000) scale(0.100000,-0.100000)"
fill="#000000" stroke="none">
<path d="M1476 3130 c-443 -51 -830 -290 -1091 -675 -344 -506 -351 -1150 -18
-1647 72 -107 155 -208 170 -208 7 0 56 53 109 117 54 65 104 126 112 135 13
15 13 20 -1 41 -8 13 -16 32 -17 43 -5 41 0 84 10 84 10 0 128 -144 137 -167
3 -7 -22 -37 -55 -68 -100 -92 -126 -195 -77 -298 45 -94 180 -204 328 -265
331 -138 694 -147 1072 -25 120 39 185 68 185 83 0 19 -65 50 -185 90 l-120
39 3 33 c1 18 10 66 19 106 l16 72 46 0 c176 0 346 79 366 170 8 37 -9 91 -35
115 -28 25 -25 34 15 51 45 18 52 37 32 78 -15 32 -14 34 11 59 26 26 26 27 9
62 -9 20 -17 42 -17 50 0 21 29 45 55 45 13 0 38 12 55 27 30 25 32 30 27 73
-3 25 -24 95 -47 156 -23 60 -96 267 -162 459 -91 268 -117 354 -109 367 8 12
-6 66 -55 220 -36 112 -69 207 -74 211 -4 5 -55 -37 -113 -93 l-106 -101 -98
24 c-91 23 -96 26 -70 36 15 6 49 10 75 8 l47 -2 119 198 c83 138 116 201 109
208 -16 16 -156 54 -264 73 -116 21 -307 28 -413 16z m350 -46 l31 -4 -76
-180 c-72 -172 -77 -180 -103 -180 -16 0 -28 5 -28 13 0 6 18 68 40 137 43
135 47 160 27 160 -9 0 -29 -49 -56 -132 -56 -177 -56 -178 -84 -178 -13 0
-26 3 -29 6 -5 4 68 304 88 362 4 13 93 11 190 -4z m-236 -6 c0 -6 -16 -73
-36 -147 -19 -75 -40 -153 -45 -173 -8 -31 -14 -38 -35 -38 -19 0 -24 4 -20
18 11 39 39 273 33 278 -21 21 -34 -13 -51 -127 -28 -189 -24 -179 -57 -179
-28 0 -29 1 -28 53 1 28 6 111 13 182 l11 130 35 6 c66 12 180 10 180 -3z
m389 -23 c38 -8 84 -20 100 -27 l30 -13 -100 -165 c-56 -91 -105 -169 -109
-174 -5 -4 -24 -3 -43 3 l-35 12 80 144 c72 132 84 165 58 165 -5 0 -44 -68
-86 -151 -69 -137 -78 -150 -100 -147 -14 2 -25 7 -25 11 -2 14 145 357 152
357 4 0 39 -7 78 -15z m-653 -117 c-13 -221 -17 -241 -47 -249 l-27 -7 -4 144
c-3 90 -9 149 -16 156 -21 21 -25 -19 -19 -168 l6 -145 -26 -10 c-14 -5 -27
-8 -29 -7 -4 5 -44 299 -44 328 0 25 7 29 83 53 45 14 93 26 106 26 l24 1 -7
-122z m-221 -119 c22 -162 23 -174 7 -186 -32 -24 -32 -25 -73 155 -20 85 -38
117 -56 99 -3 -4 9 -70 27 -147 25 -112 29 -144 20 -155 -7 -8 -18 -15 -24
-15 -10 0 -122 317 -114 324 14 13 183 104 186 101 2 -2 15 -81 27 -176z
m-196 -102 c28 -83 51 -157 51 -163 0 -7 -11 -19 -24 -27 l-24 -16 -55 127
c-30 69 -60 128 -66 130 -28 9 -18 -36 33 -154 53 -121 55 -128 39 -146 -13
-15 -19 -16 -29 -6 -12 14 -153 255 -157 269 -2 8 162 139 175 139 3 0 29 -69
57 -153z m-176 -159 l75 -137 -23 -21 -22 -21 -82 111 c-73 99 -101 123 -101
87 0 -7 36 -60 80 -119 78 -105 79 -107 61 -129 -17 -22 -17 -22 -115 92 -54
63 -100 120 -103 127 -7 16 138 166 148 154 3 -4 40 -69 82 -144z m1448 121
c10 -19 1 -31 -85 -118 -164 -165 -304 -354 -526 -711 -129 -207 -282 -434
-355 -525 -136 -170 -349 -360 -382 -339 -8 5 -14 13 -14 17 0 5 30 34 68 66
154 129 382 416 593 746 288 451 402 607 564 769 63 64 117 116 120 116 3 0
10 -9 17 -21z m-475 0 c76 -14 79 -17 52 -39 -20 -16 -36 -18 -128 -13 -413
22 -757 -183 -945 -562 -94 -188 -128 -373 -106 -578 14 -127 46 -232 105
-342 43 -80 43 -80 28 -123 -13 -40 -15 -42 -27 -25 -15 22 -75 166 -111 267
-92 263 -74 564 50 822 30 62 67 130 82 151 186 252 422 397 724 446 54 9 219
6 276 -4z m497 -75 c3 -3 -3 -14 -14 -25 -10 -10 -19 -26 -19 -34 0 -22 37
-55 60 -55 28 0 26 -34 -4 -50 -16 -8 -38 -10 -61 -6 l-36 7 7 62 c7 71 43
125 67 101z m-585 -26 c19 -19 14 -36 -13 -40 -34 -4 -33 -22 2 -26 37 -5 53
-19 53 -47 0 -29 -21 -46 -51 -43 -20 3 -25 -3 -33 -34 -8 -33 -13 -38 -38
-38 -34 0 -36 -14 -4 -35 16 -11 25 -28 28 -51 4 -31 -2 -43 -40 -85 -38 -42
-72 -63 -72 -43 0 17 62 252 70 267 14 23 3 39 -20 32 -26 -8 -45 27 -30 55 6
11 14 20 19 20 4 0 16 -9 26 -20 20 -22 45 -27 45 -9 0 6 -9 22 -20 36 -24 31
-25 37 -4 57 18 19 65 21 82 4z m132 -3 c63 -9 173 -36 183 -45 4 -4 2 -12 -6
-18 -11 -9 -21 -8 -46 4 -25 13 -38 13 -65 4 -19 -6 -37 -17 -40 -25 -3 -10
-19 -15 -44 -15 -41 0 -62 23 -76 83 -6 27 -5 28 21 23 15 -3 48 -8 73 -11z
m-277 -15 c-3 -11 -8 -20 -12 -20 -4 0 -17 -9 -29 -20 -31 -30 -30 -86 3 -120
l26 -27 -29 -114 c-27 -111 -29 -114 -58 -117 -23 -2 -33 3 -47 27 -28 47 -23
61 22 61 22 0 42 3 45 8 5 9 -16 108 -26 118 -4 4 -14 1 -23 -6 -36 -30 -93
17 -81 66 9 33 30 30 59 -7 38 -48 49 -31 45 69 l-3 86 30 7 c17 4 42 7 57 8
21 1 25 -3 21 -19z m-131 -32 c3 -24 4 -44 2 -46 -1 -2 -15 3 -32 12 -28 14
-30 14 -50 -13 -49 -67 -17 -152 64 -167 25 -5 34 -11 34 -26 0 -18 -5 -20
-36 -15 -80 13 -134 76 -134 157 0 60 31 105 83 124 61 21 64 20 69 -26z
m-749 -145 c48 -56 87 -106 87 -110 0 -5 -7 -19 -16 -31 l-16 -23 -94 91 c-84
80 -114 98 -114 71 0 -5 42 -50 94 -101 84 -82 93 -95 83 -111 -7 -11 -17 -17
-23 -15 -9 3 -215 158 -243 182 -5 4 38 71 87 137 42 55 23 66 155 -90z m1507
86 c-7 -54 4 -69 49 -69 12 0 21 -3 21 -6 0 -3 -43 -49 -96 -102 -115 -116
-226 -252 -371 -456 -336 -475 -404 -564 -541 -704 -90 -93 -247 -222 -269
-222 -7 0 -17 8 -22 19 -9 15 -2 24 47 57 84 57 276 253 366 374 79 107 162
232 402 603 143 223 267 393 359 495 31 34 58 62 59 62 1 0 -1 -23 -4 -51z
m-950 5 c-14 -36 -12 -85 4 -116 14 -26 13 -28 -4 -28 -45 0 -130 55 -130 85
0 11 116 85 132 85 4 0 3 -12 -2 -26z m714 5 l25 -12 -33 -41 c-18 -23 -52
-69 -75 -104 -43 -63 -43 -63 -68 -47 -32 21 -39 14 -27 -33 8 -33 6 -42 -24
-87 -19 -27 -35 -51 -36 -53 -2 -1 -27 4 -56 11 l-53 14 104 108 c103 107 104
108 82 122 -40 27 -24 83 23 83 17 0 23 -7 26 -27 2 -17 10 -29 21 -31 14 -3
17 4 17 34 0 35 22 74 41 74 4 0 19 -5 33 -11z m421 -90 c6 -24 3 -34 -9 -41
-106 -59 -337 -325 -519 -597 -142 -213 -294 -430 -356 -506 -91 -115 -218
-241 -315 -314 -134 -100 -146 -107 -157 -90 -15 24 -10 37 24 60 196 136 396
363 677 769 147 211 310 427 399 525 78 86 228 225 243 225 3 0 10 -14 13 -31z
m-1281 -21 c30 -42 96 -78 144 -78 29 0 57 -8 80 -22 36 -22 36 -22 12 -29
-71 -20 -178 1 -240 46 -18 14 -41 25 -49 25 -9 0 -23 5 -31 10 -12 9 -9 15
20 40 42 36 45 36 64 8z m652 -11 c9 -20 6 -29 -16 -55 -15 -18 -30 -32 -35
-32 -12 0 4 93 18 102 18 11 21 10 33 -15z m-1208 -129 c145 -110 135 -100
121 -131 -7 -15 -15 -27 -18 -27 -4 0 -51 27 -105 60 -54 33 -105 60 -113 60
-36 0 1 -35 97 -94 90 -54 105 -66 102 -86 -1 -13 -5 -26 -8 -29 -2 -3 -67 26
-143 64 l-139 68 18 41 c50 115 69 156 75 156 3 0 54 -37 113 -82z m459 56
c19 -5 21 -12 20 -55 -2 -54 -6 -57 -43 -33 -35 24 -47 49 -34 74 11 21 21 23
57 14z m1348 -141 c-20 -73 -66 -142 -123 -184 l-42 -31 0 36 c0 29 7 43 39
72 51 45 81 108 81 166 0 39 4 50 28 66 l27 21 3 -42 c2 -23 -4 -70 -13 -104z
m-1183 66 c22 -5 76 -9 120 -8 76 2 81 1 94 -22 7 -13 13 -28 14 -33 0 -9
-261 -1 -312 10 -30 7 -41 35 -32 82 l6 30 35 -24 c20 -13 54 -29 75 -35z
m-249 -2 c3 -7 23 -25 45 -41 55 -38 163 -55 347 -56 159 0 296 -12 352 -31
37 -12 39 -16 18 -43 -12 -16 -18 -17 -47 -6 -22 9 -125 15 -303 20 -216 6
-279 10 -316 24 -67 25 -109 64 -116 109 -5 35 9 53 20 24z m1346 -45 c-6 -23
-26 -58 -42 -78 -28 -33 -32 -35 -38 -18 -4 10 -8 26 -8 36 -1 17 87 114 95
105 3 -3 0 -23 -7 -45z m181 -54 c18 -57 43 -134 55 -173 l22 -70 -111 -1
c-78 0 -133 -6 -184 -21 -64 -17 -72 -18 -66 -4 3 9 8 23 11 32 3 9 22 26 43
38 86 48 180 194 180 279 0 46 17 19 50 -80z m-1536 -87 c10 -19 39 -56 64
-83 37 -40 43 -51 31 -59 -7 -5 -18 -9 -23 -9 -18 0 -104 98 -117 134 -24 66
-59 31 -59 -60 0 -40 -3 -45 -32 -58 -18 -7 -34 -12 -36 -11 -7 6 44 137 81
207 l41 78 16 -53 c9 -28 25 -67 34 -86z m-441 -17 c121 -61 133 -69 129 -90
-2 -13 -9 -24 -16 -24 -6 0 -60 16 -120 35 -60 18 -113 32 -118 29 -26 -16 3
-35 115 -71 115 -37 122 -40 119 -64 -2 -13 -5 -25 -6 -26 -2 -2 -275 55 -292
61 -9 3 -10 16 -3 48 20 92 42 168 50 168 5 0 69 -30 142 -66z m531 39 c54
-19 209 -32 396 -33 139 0 222 -9 237 -23 2 -3 -1 -15 -7 -27 -10 -19 -17 -21
-43 -15 -18 4 -135 9 -262 10 -208 2 -320 12 -351 33 -11 7 -44 65 -44 78 0 3
8 3 18 -1 9 -4 35 -14 56 -22z m1153 -85 c-8 -97 -33 -151 -102 -222 l-49 -51
-4 33 c-3 26 4 41 29 69 44 51 70 114 76 187 6 69 30 109 46 80 6 -10 7 -52 4
-96z m-124 -86 c-32 -64 -48 -74 -57 -37 -5 21 2 37 36 81 36 46 44 51 46 33
2 -11 -9 -46 -25 -77z m-1103 -6 l29 -23 -33 -32 -33 -32 -23 46 c-12 26 -25
68 -28 93 l-5 46 32 -37 c18 -20 46 -48 61 -61z m356 59 c197 -3 304 -10 304
-20 0 -2 -5 -15 -11 -28 l-11 -24 -206 5 c-191 4 -210 6 -252 27 -25 13 -54
31 -65 40 l-20 17 20 -8 c11 -4 120 -8 241 -9z m-207 -68 c8 -11 1 -21 -33
-46 -94 -71 -166 -199 -174 -312 -5 -72 -16 -90 -61 -104 -22 -7 -23 -5 -17
21 4 16 14 69 22 118 22 136 81 230 194 310 41 28 54 31 69 13z m-251 -18 c1
-9 -12 -22 -33 -32 -40 -19 -41 -24 -20 -73 14 -34 13 -54 -3 -54 -14 0 -52
80 -52 108 0 25 7 33 43 51 45 23 60 23 65 0z m1694 -9 c34 -10 38 -15 59 -78
12 -37 48 -137 80 -223 33 -86 59 -170 59 -187 0 -38 -31 -51 -120 -50 -44 1
-77 -4 -100 -15 -26 -14 -35 -15 -42 -5 -12 20 -10 41 8 66 9 13 13 30 9 39
-5 14 -10 13 -33 -10 -36 -36 -37 -95 -3 -131 l24 -26 31 19 c17 11 49 23 70
27 36 6 39 5 31 -12 -16 -41 -17 -55 -1 -79 35 -54 10 -79 -98 -95 -44 -7 -91
-16 -104 -21 -20 -8 -23 -7 -19 5 4 9 2 18 -4 22 -22 13 -55 -40 -39 -66 5 -8
19 -7 56 4 27 9 78 20 114 25 55 8 67 7 78 -7 18 -23 16 -28 -23 -51 -20 -11
-38 -27 -41 -35 -3 -8 8 -33 25 -57 53 -72 35 -131 -52 -173 -139 -68 -342
-73 -545 -12 -80 24 -181 66 -219 91 l-21 14 19 38 c14 27 19 55 18 98 -1 39
4 74 16 99 31 71 -6 175 -76 211 -42 22 -34 45 21 59 137 35 272 168 295 289
4 22 20 42 46 62 22 16 55 49 72 72 18 23 43 47 57 53 90 42 270 62 352 40z
m-1952 -100 c0 -48 -6 -49 -134 -34 -65 7 -123 11 -128 8 -27 -17 10 -30 123
-44 124 -15 124 -15 127 -42 l3 -28 -157 0 -157 0 7 100 c4 56 9 107 12 114 4
10 39 5 154 -18 145 -30 150 -32 150 -56z m610 77 l32 -14 -56 -27 c-68 -34
-141 -103 -166 -159 -57 -125 16 -264 146 -275 l55 -5 -22 -23 c-28 -30 -60
-30 -124 0 -156 72 -174 251 -43 418 29 37 112 98 134 98 6 0 26 -6 44 -13z
m344 7 c13 -5 11 -12 -10 -44 l-25 -37 -82 34 c-45 19 -91 38 -102 43 -23 10
193 14 219 4z m434 -118 c-8 -144 -87 -267 -212 -325 -60 -28 -126 -46 -126
-35 0 20 44 61 76 73 129 46 219 175 213 304 -3 56 27 112 43 82 6 -9 8 -54 6
-99z m-1091 74 c11 -16 9 -21 -10 -35 -20 -14 -23 -14 -34 2 -16 22 -16 40 0
46 23 10 32 7 44 -13z m478 -10 l40 -17 -56 -12 c-79 -17 -168 -62 -213 -110
-35 -36 -40 -47 -44 -99 -4 -55 -2 -60 23 -80 37 -29 77 -28 114 4 23 19 31
34 31 59 0 36 -41 95 -66 95 -22 0 -17 16 10 34 24 15 26 14 56 -10 65 -56 79
-131 33 -190 -14 -19 -39 -42 -54 -50 -58 -29 -153 -8 -186 43 -39 59 -30 161
20 226 47 62 190 142 232 130 11 -3 38 -13 60 -23z m-615 -95 c0 -6 -7 -20
-15 -31 -13 -17 -14 -15 -14 31 0 46 1 48 14 31 8 -11 15 -25 15 -31z m709 5
c-13 -22 -25 -40 -28 -40 -3 0 -16 16 -28 34 l-22 35 22 4 c12 2 35 5 50 6
l28 1 -22 -40z m425 -7 c-15 -85 -70 -160 -147 -199 -30 -16 -30 -16 15 47 24
35 64 92 87 127 23 34 44 62 47 62 3 0 2 -17 -2 -37z m-505 -25 l25 -45 -24
-34 -24 -33 -9 35 c-4 20 -22 51 -38 69 -33 36 -33 35 1 49 36 14 42 10 69
-41z m-544 5 c-4 -10 -10 -28 -12 -40 -4 -19 -77 -73 -97 -73 -20 0 1 38 44
80 50 51 78 65 65 33z m378 -104 c23 -32 16 -66 -19 -79 -32 -12 -50 -4 -64
29 -17 42 2 83 37 79 14 -2 35 -15 46 -29z m-630 4 c4 -2 7 -17 7 -32 0 -28 0
-28 -82 -35 -148 -12 -178 -17 -178 -34 0 -13 14 -14 103 -7 171 13 162 13
165 -16 3 -29 10 -27 -231 -80 -71 -15 -72 -13 -81 80 -4 36 -9 83 -12 105
l-6 38 153 -7 c85 -4 157 -9 162 -12z m222 -60 c-4 -27 -16 -63 -26 -81 -24
-42 -18 -52 31 -52 47 0 50 -7 50 -121 l0 -89 39 0 c28 0 49 7 68 24 26 23 29
23 58 9 l30 -16 -65 -58 c-36 -32 -70 -59 -77 -59 -13 0 -81 105 -112 174 -28
65 -61 194 -61 243 0 31 5 42 28 55 40 26 44 23 37 -29z m180 -180 c20 -17 62
-39 92 -48 l55 -18 -25 -24 -24 -25 -51 26 c-63 32 -118 79 -139 119 -14 28
-14 32 3 44 15 11 20 9 35 -15 9 -16 33 -42 54 -59z m-361 25 c3 -13 6 -28 6
-34 0 -6 -52 -26 -115 -44 -116 -33 -136 -43 -117 -62 6 -6 50 2 128 25 65 20
120 35 121 34 1 -1 4 -13 7 -27 6 -24 0 -28 -128 -85 -74 -32 -138 -59 -142
-58 -9 2 -49 110 -63 173 -8 37 -7 41 13 45 114 26 245 53 262 54 14 1 24 -7
28 -21z m996 -38 c0 -5 -4 -10 -10 -10 -5 0 -10 -7 -10 -15 0 -8 16 -19 38
-25 44 -12 62 -26 86 -62 18 -27 23 -89 11 -127 -6 -21 -8 -22 -26 -5 -12 11
-19 30 -19 54 0 23 -8 48 -22 65 -19 24 -26 27 -69 23 -41 -4 -50 -2 -55 14
-5 17 1 30 41 84 12 16 35 19 35 4z m-664 -85 c-1 -5 -17 -15 -34 -22 l-32
-13 0 51 0 51 34 -29 c19 -15 33 -32 32 -38z m571 -111 c-1 -1 -12 -6 -24 -13
-20 -10 -23 -8 -29 24 -5 27 -2 41 12 56 18 20 18 19 31 -23 6 -23 11 -43 10
-44z m-848 49 c10 -20 4 -26 -99 -88 -61 -37 -110 -72 -110 -77 0 -25 36 -13
121 39 52 33 99 62 106 66 8 5 18 -3 28 -22 l15 -30 -120 -91 c-65 -49 -121
-90 -123 -90 -8 0 -108 182 -103 187 5 5 270 131 272 129 1 -1 6 -11 13 -23z
m972 -19 c5 -15 8 -29 6 -31 -3 -2 -23 -1 -47 3 -67 11 -65 53 3 54 21 0 30
-7 38 -26z m-198 -53 c2 -10 -5 -33 -16 -51 l-20 -32 -14 26 c-13 24 -12 30 7
56 23 32 34 32 43 1z m180 -25 c73 -31 104 -106 74 -179 -21 -49 -68 -77 -131
-77 -43 0 -53 4 -87 39 -35 34 -39 44 -39 87 0 60 25 104 71 127 42 20 70 21
112 3z m-244 -91 c84 -223 25 -430 -155 -550 l-56 -37 -39 18 -40 17 60 29
c72 35 143 102 178 172 40 77 44 205 10 303 -22 65 -23 73 -9 87 9 9 19 16 23
16 4 0 17 -25 28 -55z m-609 11 c7 -18 -6 -36 -93 -123 -80 -81 -99 -105 -89
-115 10 -10 33 8 112 87 95 94 101 99 114 80 7 -11 14 -24 14 -30 0 -5 -40
-58 -90 -118 -73 -87 -93 -105 -104 -96 -28 23 -126 160 -119 167 30 31 232
179 238 175 5 -3 12 -15 17 -27z m550 -158 c27 -158 -59 -298 -223 -360 -47
-18 -51 -18 -68 -2 -24 21 -24 44 -1 44 28 1 103 38 148 75 87 72 121 211 75
312 l-19 42 21 14 c21 14 23 13 39 -21 9 -21 22 -67 28 -104z m-104 47 c7 -19
14 -61 14 -93 0 -80 -44 -154 -118 -199 -63 -37 -130 -52 -143 -32 -16 26 -9
36 32 43 130 21 205 130 166 241 -13 37 -12 41 7 57 12 9 22 17 24 18 2 0 10
-16 18 -35z m-78 -92 c3 -53 0 -65 -22 -89 l-25 -29 -1 35 c0 19 -5 53 -11 75
-10 36 -9 41 11 57 35 28 45 17 48 -49z m-103 8 c4 -14 -8 -32 -46 -68 -48
-46 -52 -54 -57 -105 -3 -42 1 -64 16 -95 28 -54 119 -135 176 -157 l46 -18
58 36 c128 78 205 194 225 341 l11 83 28 -14 c31 -16 33 -25 17 -109 -13 -73
-48 -153 -95 -217 -43 -58 -148 -140 -209 -164 l-43 -16 -63 33 c-81 43 -172
127 -199 185 -45 91 -22 182 64 262 51 47 62 51 71 23z m726 -35 c137 -65 279
-106 361 -106 28 0 30 -2 24 -27 -30 -143 -38 -215 -32 -311 5 -87 4 -104 -10
-109 -8 -3 -117 26 -242 65 -125 39 -276 85 -337 102 -60 18 -112 33 -114 35
-1 2 11 21 28 42 44 56 81 144 100 239 15 78 18 84 41 84 19 1 70 18 86 29 1
1 44 -19 95 -43z m-709 -84 c-4 -22 -36 -42 -68 -42 -24 0 -16 24 23 70 36 42
38 43 43 19 3 -13 4 -34 2 -47z m1193 -301 c50 -17 105 -36 124 -44 l35 -15
-33 -17 c-31 -16 -35 -16 -84 4 -29 11 -71 25 -94 31 -38 10 -43 14 -43 40 0
17 1 30 3 30 1 0 43 -13 92 -29z m-571 -77 c160 -47 298 -89 305 -94 10 -5
-11 -11 -55 -15 -62 -7 -77 -5 -144 20 -74 27 -270 89 -383 121 -57 15 -58 16
-41 35 9 10 19 19 22 19 3 0 136 -39 296 -86z m-243 -24 c74 -21 172 -52 219
-69 80 -28 83 -30 44 -30 -100 -2 -304 37 -426 81 l-58 21 33 17 c17 10 37 18
43 19 6 0 71 -17 145 -39z m797 9 c23 -7 42 -15 42 -19 0 -6 -102 -42 -106
-37 -1 1 -5 19 -9 41 -7 34 -6 38 11 33 11 -3 38 -11 62 -18z"/>
<path d="M2004 2366 c-10 -26 4 -48 28 -44 17 2 23 10 23 28 0 18 -6 26 -23
28 -13 2 -25 -3 -28 -12z"/>
<path d="M1934 2286 c-16 -42 25 -76 45 -37 8 15 7 23 -5 35 -19 20 -33 20
-40 2z"/>
<path d="M1876 2187 c-22 -16 -14 -37 14 -37 26 0 35 19 18 36 -12 12 -17 12
-32 1z"/>
<path d="M1074 2436 c-10 -26 4 -48 28 -44 17 2 23 10 23 28 0 18 -6 26 -23
28 -13 2 -25 -3 -28 -12z"/>
<path d="M2135 1706 c-68 -17 -112 -38 -163 -75 -44 -33 -50 -55 -16 -57 10
-1 37 -6 59 -13 22 -6 81 -11 131 -11 82 0 93 2 112 23 13 14 22 36 22 56 0
22 7 39 22 50 12 10 18 23 14 29 -9 16 -116 14 -181 -2z m51 -71 c1 -37 -2
-45 -16 -45 -23 0 -38 69 -18 81 25 17 33 8 34 -36z m-76 -10 l0 -36 -37 7
c-65 11 -69 19 -21 42 57 28 58 28 58 -13z"/>
<path d="M1434 1000 c-12 -5 -29 -19 -38 -32 -53 -76 51 -162 119 -98 60 56
-6 160 -81 130z m62 -55 c26 -39 -31 -86 -64 -53 -18 18 -15 55 6 67 23 14 42
10 58 -14z"/>
</g>
</svg>
