<?xml version="1.0" standalone="no"?>
<!DOCTYPE svg PUBLIC "-//W3C//DTD SVG 20010904//EN"
 "http://www.w3.org/TR/2001/REC-SVG-20010904/DTD/svg10.dtd">
<svg version="1.0" xmlns="http://www.w3.org/2000/svg"
 width="1280.000000pt" height="1452.000000pt" viewBox="0 0 1280.000000 1452.000000"
 preserveAspectRatio="xMidYMid meet">

<g transform="translate(0.000000,1452.000000) scale(0.100000,-0.100000)"
fill="#000000" stroke="none">
<path d="M80 8195 l0 -6325 6315 0 6315 0 0 6325 0 6325 -6315 0 -6315 0 0
-6325z m10770 5380 l0 -645 -4480 0 -4480 0 0 645 0 645 4480 0 4480 0 0 -645z
m1560 0 l0 -645 -645 0 -645 0 0 645 0 645 645 0 645 0 0 -645z m-10760 -10
l0 -635 -620 0 -620 0 0 635 0 635 620 0 620 0 0 -635z m0 -5385 l0 -4560
-620 0 -620 0 0 4560 0 4560 620 0 620 0 0 -4560z m9197 3348 c-2 -699 -8
-1228 -13 -1248 -7 -24 -16 -36 -31 -38 -28 -4 -39 18 -48 98 -7 75 -45 160
-82 190 -14 11 -40 20 -57 20 -27 0 -34 -5 -44 -33 -22 -62 -18 -70 32 -63 59
9 65 -4 27 -62 -37 -56 -70 -81 -116 -89 -34 -6 -35 -5 -35 29 0 41 -23 73
-79 113 -48 33 -60 67 -50 142 12 87 -1 115 -66 144 -68 31 -140 20 -193 -31
-32 -31 -25 -53 22 -62 22 -5 45 -13 53 -19 22 -19 15 -71 -18 -119 -16 -25
-39 -63 -51 -85 -11 -22 -34 -55 -50 -73 -17 -20 -28 -43 -26 -55 3 -20 9 -22
56 -20 41 2 52 -1 52 -13 0 -8 7 -26 16 -40 12 -18 18 -58 22 -160 5 -130 6
-136 33 -171 34 -41 36 -72 10 -128 -43 -94 -147 -138 -236 -101 -43 18 -63
50 -71 112 -14 102 -35 112 -260 123 -105 5 -169 13 -179 21 -21 17 -19 43 5
65 27 25 25 61 -5 81 -31 20 -57 15 -70 -14 -13 -29 -63 -30 -93 -2 -28 26
-28 68 -2 120 28 56 26 70 -11 70 -71 0 -172 52 -154 79 11 19 106 61 136 61
36 0 39 13 22 95 -17 82 -35 115 -64 115 -19 0 -20 -4 -15 -35 6 -31 3 -40
-22 -65 -52 -52 -119 -50 -144 5 -17 39 2 69 66 100 106 52 98 78 -29 95 -44
6 -92 13 -108 16 -34 7 -54 39 -36 60 9 11 31 13 109 8 93 -7 97 -6 113 16 9
13 38 35 64 49 l48 26 0 57 c0 41 5 61 19 77 23 25 87 46 112 37 26 -10 12
-67 -35 -137 -37 -56 -61 -122 -48 -135 3 -4 29 2 57 11 66 22 96 14 105 -26
11 -49 -11 -87 -58 -100 -84 -22 -95 -45 -47 -99 16 -18 36 -57 45 -86 8 -29
20 -56 27 -60 15 -10 34 19 42 64 3 21 20 58 38 82 59 77 68 95 63 117 -3 15
5 31 29 55 19 19 40 53 47 76 12 41 11 44 -19 86 -18 24 -32 46 -32 49 0 3 15
28 34 55 64 96 72 208 16 237 -42 22 -87 19 -100 -5 -14 -26 -69 -27 -102 -1
-13 11 -40 48 -58 83 -47 90 -84 133 -133 157 -61 30 -87 26 -155 -19 -33 -22
-62 -40 -66 -40 -11 0 -5 85 9 125 29 81 31 76 -127 285 -101 132 -152 180
-191 180 -11 0 -54 -15 -96 -34 -69 -32 -114 -43 -240 -61 l-44 -6 6 85 c10
137 -5 177 -78 216 -31 17 -45 6 -69 -52 -14 -34 -14 -38 4 -61 22 -28 25 -58
10 -88 -15 -28 -44 -23 -79 12 -24 23 -30 36 -25 55 9 36 -20 41 -60 10 -99
-75 -192 -98 -220 -53 -8 12 -18 45 -22 72 -9 64 -35 115 -74 149 -48 40 -70
34 -139 -36 l-61 -63 72 -6 c85 -7 105 -14 113 -40 8 -26 1 -36 -48 -60 -87
-45 -127 -89 -127 -141 0 -46 14 -52 58 -27 34 20 42 21 56 10 41 -34 -5 -101
-70 -101 -86 0 -154 143 -124 260 22 83 20 93 -25 108 -48 16 -106 9 -151 -19
l-32 -19 -16 24 c-10 16 -29 28 -53 32 -89 16 -108 50 -105 189 1 55 -1 112
-4 128 -7 33 -33 36 -59 7 -22 -25 -37 -25 -100 -1 -62 23 -174 48 -480 106
-139 27 -278 59 -330 78 -89 32 -91 32 -275 31 -204 0 -352 -16 -390 -42 -14
-9 -34 -19 -45 -22 -12 -4 -32 -31 -50 -68 -43 -86 -45 -87 -93 -63 -49 25
-68 26 -88 6 -9 -8 -27 -17 -42 -20 -72 -15 -103 -28 -176 -74 -53 -34 -98
-54 -135 -61 -133 -25 -185 -60 -235 -157 -13 -26 -37 -60 -53 -75 -32 -30
-279 -148 -309 -148 -36 0 -53 24 -73 103 -11 43 -25 84 -31 92 -7 8 -47 31
-89 51 -56 28 -92 54 -138 102 -67 71 -59 69 -124 35 -3 -2 -5 16 -5 39 l1 43
-38 -1 c-57 -2 -212 -82 -287 -150 -35 -31 -80 -63 -99 -71 -20 -9 -51 -29
-70 -46 l-35 -30 -101 7 c-98 6 -104 5 -155 -21 -38 -20 -64 -44 -91 -83 -88
-127 -91 -216 -11 -373 l52 -102 -37 -30 c-21 -16 -74 -64 -118 -106 -44 -42
-90 -81 -102 -88 -15 -7 -64 -9 -155 -5 -129 6 -134 6 -165 -17 -132 -98 -156
-109 -238 -109 -59 0 -88 16 -186 103 l-59 51 0 693 0 693 4481 0 4480 0 -4
-1212z m1563 -3348 l0 -4560 -645 0 -645 0 0 4560 0 4560 645 0 645 0 0 -4560z
m-6580 4455 c19 -4 62 -19 95 -32 44 -19 71 -24 106 -21 72 7 79 -1 78 -85 0
-40 -4 -80 -7 -90 -7 -16 -9 -16 -27 -3 -30 23 -57 19 -109 -15 -52 -35 -116
-112 -116 -140 0 -10 5 -30 12 -44 10 -22 8 -29 -12 -50 -12 -13 -45 -32 -71
-40 -27 -9 -51 -21 -54 -26 -9 -13 85 -69 117 -69 33 0 53 27 64 85 7 40 53
96 117 141 15 11 29 27 31 36 3 26 12 31 40 24 15 -4 31 -19 41 -39 8 -17 53
-76 100 -131 46 -54 87 -107 91 -118 3 -11 -2 -40 -11 -64 -18 -47 -17 -105 2
-111 7 -3 26 21 44 52 36 64 57 81 114 91 22 3 52 14 67 22 60 35 115 -39 84
-112 -12 -28 -27 -42 -68 -61 -29 -14 -58 -25 -64 -25 -6 0 -17 -7 -24 -15
-20 -24 102 -140 164 -157 25 -7 46 -15 46 -18 0 -3 -22 -17 -49 -32 -78 -44
-79 -48 -19 -106 29 -28 65 -60 81 -72 15 -12 27 -25 27 -29 0 -4 -31 -32 -70
-62 -38 -30 -70 -56 -70 -59 0 -3 20 -21 44 -40 66 -51 72 -73 55 -189 -18
-129 -17 -237 4 -278 25 -47 21 -58 -24 -76 l-41 -16 22 -36 c20 -32 20 -36 4
-42 -29 -11 -48 12 -61 75 -16 81 -36 118 -92 170 l-46 43 24 20 c13 10 35 22
50 25 62 15 77 63 42 139 -17 38 -72 95 -91 95 -32 0 -40 -14 -40 -69 0 -58
-11 -81 -41 -81 -26 0 -67 38 -74 69 -3 16 -29 63 -56 105 -58 87 -74 132 -60
168 12 33 28 44 101 70 39 14 71 33 83 49 26 36 34 110 14 128 -19 15 -51 1
-67 -30 -14 -25 -68 -59 -94 -59 -58 0 -73 77 -31 160 30 58 29 55 9 74 -11
12 -36 15 -97 15 -86 -1 -134 13 -141 40 -2 9 -7 46 -11 84 -11 111 -54 82
-73 -48 -20 -132 -19 -133 35 -147 57 -14 115 -69 157 -150 l29 -56 -32 -29
c-19 -15 -59 -45 -89 -66 -64 -44 -92 -44 -149 -1 -39 30 -41 51 -13 144 29
94 27 140 -7 172 -16 14 -49 35 -75 46 -72 31 -98 62 -98 115 0 54 -6 57 -106
57 -66 0 -77 3 -104 28 -20 18 -34 45 -45 87 -35 137 -11 192 86 202 80 8 99
-5 99 -67 0 -60 7 -80 30 -80 72 0 80 190 13 327 -14 28 -23 59 -20 67 10 25
63 46 138 55 39 5 73 12 76 15 3 3 -11 25 -31 49 -35 43 -38 61 -7 53 9 -3 32
-8 51 -11z m685 -145 c9 -17 22 -84 30 -150 8 -65 19 -130 25 -144 7 -19 5
-29 -6 -41 -33 -33 -97 -5 -178 78 -34 34 -80 77 -103 95 -52 40 -73 95 -53
142 15 37 48 47 89 26 67 -35 161 -29 161 9 0 25 19 17 35 -15z m-1124 -81 c9
-17 8 -25 -4 -36 -20 -20 -67 -9 -67 15 0 42 51 57 71 21z m-196 -109 c23 -24
26 -32 15 -45 -15 -18 -71 -20 -88 -3 -26 26 -7 78 28 78 9 0 29 -13 45 -30z
m1636 -30 c28 -13 49 -47 49 -81 0 -34 -53 -79 -93 -79 -28 0 -36 -5 -41 -22
-5 -23 -6 -23 -38 9 l-32 32 18 78 c27 114 28 115 73 93 21 -10 50 -24 64 -30z
m-3102 -4 c15 -18 34 -123 27 -152 -7 -26 -44 -49 -118 -71 -88 -26 -97 -1
-33 87 18 25 36 61 40 80 13 60 56 90 84 56z m1088 -56 c3 -13 14 -20 28 -20
30 0 38 -12 65 -93 32 -100 51 -105 173 -51 102 45 155 49 192 14 39 -36 49
-68 30 -96 -18 -28 -46 -31 -80 -8 -50 33 -68 -5 -43 -88 19 -64 40 -72 150
-58 139 18 175 -5 187 -117 l6 -57 61 -11 c91 -17 126 -41 147 -103 9 -29 22
-95 29 -147 l12 -93 -31 -35 c-17 -20 -34 -45 -38 -57 -6 -20 -8 -20 -24 -6
-10 9 -27 16 -39 16 -39 0 -52 26 -53 108 -1 110 -8 127 -47 129 -18 1 -47 6
-64 12 -42 15 -48 14 -48 -7 0 -26 73 -164 130 -245 27 -39 50 -77 50 -84 0
-38 -75 -39 -158 -2 l-43 18 7 104 c7 117 -7 166 -55 191 -44 23 -61 50 -76
122 -23 111 -39 147 -75 172 -50 34 -141 24 -178 -20 -19 -24 4 -36 94 -52
100 -18 114 -24 114 -46 0 -11 -27 -49 -60 -87 -52 -60 -130 -182 -130 -203 0
-5 34 1 76 12 42 10 97 18 123 16 l46 -3 3 -74 c3 -84 -5 -99 -73 -133 -112
-56 -120 -114 -26 -182 28 -20 61 -47 73 -61 12 -14 27 -25 34 -25 7 0 26 24
42 53 39 70 80 90 120 60 40 -29 62 -73 73 -145 5 -34 18 -74 28 -88 14 -20
105 -78 146 -93 13 -5 -20 -53 -50 -73 -24 -16 -26 -15 -50 10 -13 14 -29 26
-35 26 -20 0 -50 -41 -50 -68 0 -64 -53 -79 -311 -92 -197 -10 -366 -2 -423
20 -16 6 -47 26 -69 45 -22 19 -47 35 -55 35 -8 0 -39 -22 -69 -50 -34 -31
-64 -50 -78 -50 -46 0 -125 89 -125 139 0 38 30 42 251 39 l211 -3 31 36 c18
20 40 49 50 64 43 62 94 52 195 -39 66 -59 128 -96 160 -96 11 0 30 8 42 18
34 27 14 52 -72 94 -41 20 -95 54 -121 76 -30 26 -61 43 -85 47 -92 15 -174
36 -209 53 -21 11 -54 23 -73 27 -19 4 -53 20 -74 36 -22 16 -44 29 -48 29 -4
0 -8 -30 -8 -67 -1 -109 -46 -183 -111 -183 -15 0 -31 6 -37 13 -16 19 -33 94
-35 153 -2 47 1 58 21 72 32 25 20 47 -45 84 -62 35 -79 57 -88 113 -12 76
-23 92 -68 104 -47 11 -104 61 -113 98 -7 27 19 63 44 63 9 0 34 -20 56 -43
46 -49 66 -61 114 -71 19 -3 48 -17 65 -32 37 -31 168 -98 221 -113 32 -8 53
-7 112 9 119 31 168 5 182 -97 6 -39 11 -48 27 -48 26 0 45 40 45 94 0 40 -4
48 -68 110 -76 74 -86 97 -101 234 -12 107 -6 128 57 184 l47 42 -90 1 c-105
0 -131 12 -141 65 -10 54 3 96 51 170 25 38 44 76 43 84 -3 15 -24 24 -81 36
-40 8 -54 44 -38 96 21 71 86 116 98 69z m-1368 -156 c37 -31 38 -40 6 -84
-27 -37 -32 -75 -12 -101 7 -9 35 -27 62 -40 63 -30 71 -60 25 -104 -33 -31
-39 -59 -15 -69 21 -8 19 -30 -5 -51 -26 -23 -25 -30 5 -89 40 -78 32 -176
-13 -176 -8 0 -50 16 -93 35 -90 41 -90 41 -164 -34 -56 -58 -80 -63 -117 -23
-48 51 -63 98 -28 87 14 -4 27 2 45 21 14 15 25 31 25 35 0 16 45 32 116 40
88 10 151 39 160 75 8 31 -1 91 -17 110 -14 17 -43 18 -57 2 -5 -7 -15 -32
-21 -54 -6 -23 -19 -45 -29 -49 -22 -8 -57 32 -74 86 -6 23 -25 55 -41 72
l-30 32 -8 -24 c-8 -21 -14 -23 -59 -19 -27 3 -61 13 -76 23 -26 17 -27 19
-22 99 5 81 27 146 49 146 32 0 86 -90 103 -172 11 -48 57 -36 133 33 24 22
51 39 62 39 32 0 41 23 35 88 -10 96 2 111 55 66z m572 -23 c15 -19 18 -31 12
-60 -5 -20 -8 -73 -8 -117 0 -89 17 -124 60 -124 31 0 63 -34 75 -80 15 -55 2
-75 -70 -101 -82 -30 -87 -38 -56 -92 14 -24 26 -51 26 -60 0 -25 -49 -33 -83
-14 -38 22 -42 22 -55 -8 -16 -36 -54 -33 -99 8 l-36 34 -8 139 c-4 76 -10
148 -14 159 -5 11 -32 54 -62 97 -68 98 -69 119 -5 157 46 29 63 43 91 76 11
14 30 16 113 13 91 -3 102 -5 119 -27z m3262 15 c6 -15 -1 -26 -15 -26 -4 0
-8 9 -8 20 0 23 15 27 23 6z m-175 -30 c25 -24 -20 -106 -59 -106 -19 0 -59
64 -59 94 0 36 85 45 118 12z m-2588 -27 c7 -11 9 -23 6 -26 -8 -9 -36 17 -36
33 0 21 18 17 30 -7z m2348 -25 c71 -50 66 -167 -9 -193 -43 -15 -152 -14
-167 1 -31 31 12 128 81 183 37 29 63 31 95 9z m-2419 -49 c43 -22 55 -60 36
-120 -20 -68 -19 -79 11 -114 26 -31 66 -41 80 -20 4 7 23 9 51 5 l44 -6 -19
28 c-26 37 -33 69 -21 99 7 20 12 23 24 13 7 -6 17 -24 20 -40 9 -43 60 -116
93 -136 17 -9 35 -28 41 -42 18 -39 24 -133 12 -180 -10 -37 -19 -46 -54 -63
-98 -44 -153 -18 -217 100 -27 52 -54 88 -70 96 -24 12 -31 11 -66 -10 -48
-30 -88 -31 -115 -4 -25 25 -20 67 17 141 31 60 32 83 4 68 -65 -35 -7 142 60
184 31 19 34 19 69 1z m2883 -36 c15 -22 29 -63 33 -90 6 -42 3 -58 -19 -103
-32 -65 -32 -84 -3 -127 24 -35 54 -54 100 -64 36 -7 100 -66 122 -110 10 -22
15 -53 13 -83 -5 -70 -32 -69 -133 8 -91 69 -98 70 -200 27 -66 -28 -171 -49
-204 -40 -32 8 -25 30 28 86 85 91 121 191 121 337 0 91 12 123 67 182 31 32
41 29 75 -23z m723 -90 c0 -74 -29 -179 -58 -210 -17 -18 -28 -21 -83 -17 -74
5 -104 26 -123 88 -17 58 -1 84 45 76 47 -9 64 3 103 72 38 68 65 87 96 67 17
-10 20 -24 20 -76z m505 1 c16 -38 8 -121 -14 -154 -19 -30 -61 -34 -105 -11
-67 34 -54 104 32 166 51 37 71 37 87 -1z m-2950 -50 c0 -11 -4 -20 -10 -20
-5 0 -10 9 -10 20 0 11 5 20 10 20 6 0 10 -9 10 -20z m1479 -56 c26 -33 27
-61 1 -69 -27 -8 -59 11 -66 40 -14 57 29 75 65 29z m589 -14 c38 -23 40 -45
9 -91 -57 -84 -157 -106 -157 -34 0 39 80 145 110 145 3 0 20 -9 38 -20z
m-4020 -12 c20 -20 14 -37 -18 -53 -37 -19 -40 -19 -40 6 0 47 32 73 58 47z
m3222 -17 c5 -11 10 -49 10 -85 0 -61 2 -66 33 -90 31 -25 32 -27 27 -88 -13
-185 1 -260 53 -277 35 -12 96 -2 126 21 10 7 38 28 62 46 43 33 88 40 96 16
2 -7 -14 -33 -37 -58 -54 -64 -52 -84 10 -78 30 3 60 -9 70 -28 14 -26 4 -60
-18 -60 -28 0 -78 -36 -101 -73 -11 -19 -27 -71 -35 -116 -15 -86 -52 -207
-66 -216 -4 -3 -11 6 -14 20 -4 16 -13 25 -26 25 -45 0 -53 185 -11 256 22 37
28 74 11 74 -5 0 -33 -20 -62 -45 -75 -64 -104 -76 -159 -64 -93 21 -149 41
-149 54 0 17 59 61 115 86 l45 20 0 52 c0 69 -27 310 -40 359 -10 34 -14 38
-42 38 l-31 0 7 55 c8 72 32 131 64 155 31 25 48 25 62 1z m1918 -9 c3 -19 -1
-23 -15 -20 -10 2 -19 14 -21 26 -3 19 1 23 15 20 10 -2 19 -14 21 -26z m-507
1 c31 -18 46 -51 35 -78 -17 -45 -138 -74 -166 -40 -25 30 43 135 87 135 8 0
28 -8 44 -17z m209 -94 c0 -6 -15 -29 -34 -52 -52 -64 -66 -100 -73 -184 -6
-74 -8 -80 -43 -113 -20 -19 -60 -48 -89 -63 l-51 -28 0 115 c0 121 4 146 25
146 12 0 38 28 94 100 42 55 171 115 171 79z m345 -63 c31 -20 50 -58 41 -81
-3 -9 -27 -25 -52 -37 -44 -19 -49 -19 -81 -4 -37 18 -75 71 -71 101 6 45 107
58 163 21z m-924 -2 c68 -19 106 -49 89 -69 -14 -17 -73 -37 -97 -33 -15 2
-18 -4 -18 -35 0 -26 -6 -43 -19 -52 -21 -16 -20 -21 8 -181 22 -117 5 -166
-67 -193 -17 -7 -27 -18 -27 -31 0 -24 -13 -26 -30 -5 -19 23 -8 48 27 57 36
9 50 37 33 68 -13 25 -30 25 -61 2 -36 -28 -52 -31 -87 -17 -42 18 -46 40 -39
214 7 154 -1 213 -31 230 -13 8 -9 10 20 9 21 -1 48 7 65 18 15 10 35 22 43
26 28 12 133 8 191 -8z m-4897 -56 c8 -13 18 -43 22 -67 5 -32 18 -55 49 -87
39 -41 45 -44 96 -44 60 0 137 18 186 43 18 10 55 22 83 28 45 10 55 8 91 -10
22 -12 54 -21 72 -21 40 -1 102 -23 126 -44 54 -49 155 -37 227 25 53 46 72
48 113 13 41 -34 41 -77 1 -132 -16 -23 -30 -46 -30 -51 0 -5 36 -21 80 -37
130 -45 146 -76 85 -167 -19 -28 -35 -62 -35 -74 0 -14 28 -52 74 -102 49 -52
78 -92 85 -117 15 -54 14 -137 -2 -159 -13 -17 -15 -17 -33 9 -62 90 -73 97
-186 130 -35 10 -69 29 -88 47 -27 28 -30 36 -30 96 0 62 -2 67 -36 99 -45 43
-72 43 -130 -1 -47 -36 -84 -44 -101 -22 -6 6 -13 32 -17 57 -8 54 -35 101
-95 162 -62 65 -89 72 -214 58 -115 -13 -137 -8 -181 39 -50 52 -109 38 -99
-24 11 -68 -38 -100 -75 -47 -44 62 -65 122 -88 246 -31 173 -31 176 6 176 20
0 34 -8 44 -22z m5570 -61 c74 -71 74 -129 -2 -135 -33 -3 -46 2 -76 28 -62
55 -60 150 4 150 21 0 42 -12 74 -43z m685 7 c34 -43 27 -88 -24 -174 -44 -72
-45 -76 -45 -160 0 -108 -9 -160 -28 -168 -23 -9 -103 16 -139 44 -26 20 -40
24 -67 18 -69 -12 -106 65 -75 154 7 22 20 34 44 42 19 6 50 24 71 41 22 17
44 27 54 24 9 -3 29 5 45 17 34 26 85 105 85 131 0 57 45 74 79 31z m-3187
-89 c8 -19 8 -29 0 -37 -16 -16 -42 -2 -42 25 0 43 24 50 42 12z m2722 4 c17
-25 10 -51 -12 -47 -21 4 -36 32 -29 52 9 22 23 20 41 -5z m-694 -29 c0 -62
-23 -107 -65 -127 -43 -20 -68 -10 -73 29 -2 19 10 40 48 82 64 69 90 74 90
16z m-2100 -47 c0 -103 -34 -134 -70 -63 -29 57 -27 86 9 93 18 4 31 14 35 29
10 37 26 2 26 -59z m2870 56 c7 -11 9 -24 5 -27 -7 -7 -35 25 -35 40 0 16 19
8 30 -13z m-6384 -67 c19 -13 24 -42 14 -95 -12 -64 -40 -91 -84 -83 -87 18
-106 128 -28 170 29 16 80 20 98 8z m6264 -42 c28 -28 28 -119 1 -144 -55 -50
-124 91 -71 144 11 11 27 20 35 20 8 0 24 -9 35 -20z m-6819 -68 c9 -40 3 -62
-17 -62 -30 0 -42 57 -23 107 10 26 11 27 21 9 6 -11 14 -35 19 -54z m787 56
c7 -7 12 -29 12 -50 0 -32 -4 -40 -25 -48 -14 -5 -25 -14 -25 -19 0 -14 50
-51 68 -51 25 0 52 31 52 60 0 28 31 50 69 50 27 0 31 -19 31 -141 0 -60 4
-109 9 -109 5 0 33 11 63 25 65 31 121 32 148 5 11 -11 20 -26 20 -32 0 -39
-138 -190 -195 -214 -35 -14 -39 -22 -50 -90 -15 -100 -97 -185 -132 -138 -27
36 -8 107 59 213 20 32 20 34 4 46 -9 7 -59 21 -109 30 -52 9 -97 23 -103 31
-7 9 -10 39 -6 79 3 41 1 65 -5 65 -17 0 -43 65 -43 107 0 33 7 46 45 83 25
24 45 52 45 61 0 20 26 49 44 49 6 0 17 -5 24 -12z m3491 -93 c0 -39 -7 -88
-15 -110 -9 -22 -18 -54 -21 -72 -7 -43 21 -59 136 -82 126 -26 135 -33 154
-128 16 -83 15 -98 -6 -69 -13 18 -15 17 -40 -8 -36 -36 -113 -36 -198 -1 -60
26 -62 26 -116 10 -62 -18 -91 -13 -145 28 -44 33 -71 40 -141 38 -54 -2 -61
1 -93 33 -19 19 -34 42 -34 52 0 10 22 41 49 69 27 27 58 65 68 84 28 51 65
75 119 75 39 1 50 -3 67 -26 31 -41 35 -128 8 -173 -28 -48 -28 -75 2 -75 36
0 64 26 84 77 23 61 23 161 0 197 -9 14 -17 33 -17 42 0 9 28 43 62 76 72 69
78 66 77 -37z m2328 68 c28 -43 22 -117 -16 -191 -44 -87 -45 -152 -2 -152 24
0 43 23 35 43 -13 35 66 120 95 103 6 -4 11 -22 11 -40 0 -44 -27 -189 -46
-248 -9 -26 -13 -52 -10 -57 4 -5 30 -17 59 -25 65 -19 97 -51 104 -105 5 -35
2 -44 -25 -71 -20 -19 -40 -30 -59 -30 -43 0 -67 -21 -60 -52 8 -29 43 -47
107 -55 40 -5 50 -2 75 21 51 47 150 61 185 26 19 -19 19 -22 4 -58 -40 -92
-23 -113 53 -63 25 17 54 31 63 31 24 0 55 -38 73 -90 24 -67 49 -217 42 -250
-8 -36 -77 -100 -108 -100 -40 0 -87 65 -87 118 0 32 -13 48 -45 54 -14 2 -22
15 -28 43 -20 96 -28 114 -67 149 -67 61 -184 81 -237 40 -16 -12 -16 -15 -3
-24 8 -5 23 -10 33 -10 28 0 166 -60 193 -84 l23 -21 -25 -60 c-14 -32 -27
-74 -29 -91 -3 -43 -60 -131 -97 -150 -26 -13 -45 -14 -141 -3 -128 13 -147
20 -147 54 0 13 8 28 18 34 15 8 13 11 -13 22 -16 6 -52 14 -78 17 -54 5 -73
-7 -123 -79 -33 -48 -23 -64 46 -74 36 -5 58 -3 81 9 39 19 39 19 39 2 0 -8
-11 -27 -24 -43 -28 -34 -40 -91 -26 -128 9 -23 13 -25 26 -14 8 7 24 30 35
50 23 47 54 69 94 69 38 0 55 -16 55 -51 0 -29 23 -55 40 -44 5 3 17 19 25 35
9 18 26 32 43 36 48 10 81 25 129 60 60 42 95 44 134 5 36 -37 41 -97 9 -126
-11 -10 -20 -24 -20 -32 0 -27 30 -24 85 7 65 37 88 36 95 -5 7 -43 40 -45 75
-3 26 31 27 36 21 101 -5 57 -4 69 10 74 22 8 48 -9 52 -33 10 -64 9 -63 60
-57 38 4 52 1 75 -17 41 -32 38 -81 -8 -116 -51 -38 -47 -61 13 -70 57 -8 264
-69 303 -90 33 -17 37 -40 13 -86 -19 -36 -18 -36 81 6 33 14 68 26 78 26 29
0 57 -37 57 -76 0 -32 -8 -44 -57 -90 -49 -45 -56 -56 -47 -71 6 -10 29 -21
50 -24 29 -5 48 -18 76 -49 54 -61 57 -82 18 -127 -18 -20 -39 -51 -46 -70 -8
-18 -20 -33 -27 -33 -8 0 -34 20 -59 45 -65 63 -106 61 -122 -7 -3 -16 -13
-28 -21 -28 -8 0 -26 -23 -40 -51 l-26 -51 -74 7 -74 7 -3 -43 c-3 -39 -6 -44
-28 -44 -19 0 -30 10 -49 43 -15 29 -42 56 -77 78 -36 23 -54 41 -54 55 0 11
20 45 45 76 25 30 45 60 45 66 0 7 -8 47 -17 91 -18 77 -19 79 -68 111 -79 50
-80 54 -77 168 5 145 -15 177 -111 177 -46 0 -67 -13 -67 -42 0 -14 8 -18 36
-18 50 0 73 -16 95 -65 33 -74 5 -118 -83 -133 -57 -10 -70 -33 -38 -68 30
-31 159 -124 173 -124 6 0 21 -10 34 -22 34 -32 30 -73 -11 -114 -28 -28 -42
-34 -75 -34 -60 0 -144 36 -213 91 -64 51 -95 61 -104 32 -18 -58 -68 -93
-132 -93 -60 0 -82 20 -82 76 0 35 -5 47 -24 60 -14 8 -33 36 -42 60 -9 24
-20 44 -24 44 -10 0 -65 -115 -80 -166 -16 -52 -3 -79 42 -88 59 -11 318 -179
333 -216 3 -7 -2 -24 -12 -36 -73 -90 -77 -97 -84 -150 -4 -30 -12 -61 -19
-69 -6 -7 -38 -16 -71 -20 -42 -5 -63 -13 -73 -27 -13 -19 -15 -18 -40 15 -32
42 -34 93 -6 209 23 98 25 151 6 167 -17 15 -17 15 -51 -87 -36 -110 -58 -135
-118 -136 -32 -1 -54 5 -74 20 -25 19 -28 28 -31 88 -3 69 -11 79 -44 49 -24
-22 -24 -92 1 -141 28 -56 162 -167 216 -181 37 -9 48 -18 64 -49 22 -44 37
-58 66 -64 28 -5 30 -32 3 -68 -25 -34 -19 -44 32 -56 92 -22 100 -26 115 -54
23 -45 18 -68 -25 -110 -22 -22 -40 -45 -40 -53 0 -17 20 -37 39 -37 8 0 35
-13 60 -29 44 -28 74 -39 250 -92 115 -35 162 -90 126 -145 -23 -35 -86 -33
-158 6 -31 17 -63 30 -70 30 -24 0 -66 -40 -102 -96 -47 -73 -70 -94 -105 -94
-16 0 -41 -5 -55 -12 -38 -17 -45 1 -45 102 1 47 1 91 1 98 -1 10 -11 12 -39
7 -30 -5 -44 -2 -66 16 l-28 22 -32 -38 c-57 -67 -121 -48 -146 43 -13 51 -37
82 -63 82 -12 0 -53 -16 -91 -35 -78 -39 -91 -42 -100 -20 -3 8 -12 15 -20 15
-26 0 -34 31 -41 162 l-7 127 83 3 84 3 7 68 c3 37 16 86 27 108 12 22 21 44
21 48 0 18 -171 46 -339 57 -120 8 -125 13 -142 115 -26 156 -42 164 -50 24
-5 -90 -9 -106 -39 -161 -30 -53 -32 -64 -21 -78 19 -23 41 -20 106 14 96 50
205 34 223 -34 8 -28 12 -31 45 -29 25 2 37 -2 37 -10 0 -16 -35 -64 -79 -108
-53 -52 -93 -148 -99 -234 -4 -71 -4 -73 30 -111 20 -22 43 -53 52 -71 30 -60
82 -56 152 12 25 25 49 45 54 45 13 0 60 -52 60 -66 0 -17 -66 -51 -134 -71
-121 -34 -133 -53 -70 -114 37 -36 38 -44 13 -107 -11 -27 -11 -34 -1 -41 8
-4 18 -28 23 -51 6 -24 21 -54 34 -66 25 -23 32 -48 17 -58 -22 -13 -96 87
-90 122 3 14 -6 17 -52 17 -30 0 -61 4 -67 8 -7 5 -13 28 -13 52 0 58 -26 68
-77 32 l-36 -26 -19 24 c-10 13 -29 27 -41 31 -47 14 -55 30 -49 99 4 54 2 66
-12 71 -11 4 -22 -1 -31 -12 -14 -18 -14 -18 -15 7 0 42 41 104 101 153 33 26
59 56 63 72 8 31 -9 90 -29 98 -17 6 -35 -22 -35 -56 0 -31 -24 -65 -60 -83
-31 -16 -107 -20 -128 -7 -9 6 -31 95 -32 130 0 4 -50 -9 -133 -34 -142 -44
-174 -31 -164 62 l6 56 -32 -5 c-18 -3 -60 -11 -94 -18 -88 -18 -120 -7 -162
59 l-34 52 -34 -26 c-23 -17 -64 -32 -126 -45 -115 -24 -180 -26 -212 -5 -29
19 -46 73 -38 121 8 49 -3 85 -26 85 -29 0 -47 24 -55 69 -3 22 -23 78 -43
123 -31 71 -37 98 -43 184 -7 122 -25 154 -107 191 -65 30 -76 53 -67 135 9
84 21 93 137 112 133 22 153 21 182 -9 20 -19 25 -34 25 -73 0 -50 -19 -87
-87 -170 l-32 -38 65 -52 c36 -28 82 -56 103 -62 63 -17 80 -94 41 -185 -24
-55 -26 -85 -5 -85 17 0 186 68 199 80 5 5 -9 29 -32 55 -22 26 -44 60 -47 76
-7 33 8 59 34 59 35 0 81 40 109 97 57 114 48 148 -33 136 -56 -7 -101 11
-120 48 -19 35 -19 61 0 123 24 79 12 93 -101 116 -73 15 -106 32 -133 66 -25
32 -27 74 -5 115 15 31 118 89 157 89 39 0 13 18 -42 29 -32 6 -65 19 -73 29
-23 26 -29 79 -19 160 16 128 63 192 141 192 26 0 45 -13 99 -65 37 -36 73
-65 79 -65 22 0 23 42 2 125 -31 121 -14 161 56 135 43 -17 64 -40 64 -72 0
-34 4 -35 47 -2 18 14 54 34 79 46 44 19 48 19 90 3 46 -18 94 -65 94 -94 0
-28 -56 -132 -95 -178 -19 -23 -51 -47 -70 -53 -46 -15 -137 2 -187 35 -21 14
-40 25 -43 25 -13 0 -3 -39 11 -44 26 -10 12 -99 -22 -139 -61 -72 -80 -168
-49 -242 17 -41 56 -61 87 -44 25 14 18 48 -23 103 -34 46 -36 65 -11 96 33
41 153 35 166 -9 3 -9 8 -46 12 -84 3 -37 11 -70 16 -73 5 -4 22 5 36 19 74
69 137 84 171 41 50 -64 7 -184 -66 -184 -11 0 -24 -5 -30 -11 -14 -14 -6 -39
12 -39 38 0 38 -141 0 -205 -30 -51 -28 -54 63 -75 l52 -12 0 -48 c0 -62 -20
-84 -67 -75 -85 16 -233 -62 -252 -132 -12 -43 -15 -126 -4 -136 4 -4 23 36
42 90 35 95 37 98 76 109 66 20 98 16 150 -18 l48 -32 76 27 c82 29 112 33
142 16 45 -24 198 37 289 115 88 75 123 62 159 -59 26 -88 51 -130 92 -150 28
-15 33 -15 46 -2 22 21 9 50 -36 82 -22 14 -47 35 -56 45 -15 17 -14 20 13 51
16 19 37 49 46 67 11 22 24 32 39 32 59 0 123 31 190 90 55 48 75 60 102 60
52 0 132 20 146 36 18 22 -3 59 -41 70 -70 20 -97 101 -60 185 27 63 15 84
-23 40 -30 -37 -47 -39 -73 -10 -24 27 -78 51 -98 43 -11 -4 -16 0 -16 11 0 9
-9 28 -20 42 -24 31 -26 73 -5 113 26 50 65 51 187 4 60 -24 78 -12 53 36 -22
42 -68 60 -158 60 -108 0 -129 10 -179 88 l-42 67 -6 -40 c-12 -77 -23 -87
-118 -103 -24 -4 -44 -11 -45 -17 -1 -5 21 -20 48 -33 142 -66 137 -62 177
-143 26 -55 49 -87 82 -114 30 -25 46 -45 46 -60 0 -13 16 -42 35 -65 42 -51
44 -78 9 -149 -41 -81 -83 -121 -130 -121 -47 0 -98 33 -120 78 -14 31 -14 36
5 73 12 22 30 71 41 110 l19 69 -133 -6 c-147 -8 -177 0 -231 56 l-27 28 62
116 c34 64 60 124 58 133 -2 11 -18 20 -42 25 -22 5 -54 20 -72 33 -18 14 -40
25 -48 25 -11 0 -16 10 -16 34 0 28 -7 40 -39 66 -22 17 -42 39 -45 48 -2 9
-7 30 -11 45 -6 29 -6 29 -73 25 l-67 -3 3 58 c4 105 43 156 129 172 50 9 73
-14 73 -75 0 -50 41 -147 67 -157 8 -3 24 4 37 16 14 13 35 21 59 21 33 0 37
3 37 25 0 35 -42 75 -79 75 -16 0 -32 -6 -35 -12 -3 -7 -3 33 0 88 6 109 1
144 -22 144 -8 0 -41 -11 -74 -25 -80 -34 -124 -33 -147 1 -21 33 -21 124 0
154 8 12 52 51 98 88 107 87 111 93 75 131 -26 28 -28 34 -24 92 4 52 9 66 32
86 34 29 110 33 121 6 5 -10 11 -103 14 -208 7 -200 9 -208 62 -275 15 -19 39
-65 52 -102 27 -75 70 -138 94 -138 8 0 51 12 95 27 73 25 84 26 134 15 82
-17 102 -3 65 45 -24 30 -38 98 -46 223 -6 110 2 136 55 162 47 24 91 23 124
-3 37 -29 35 -78 -5 -134 -17 -24 -29 -51 -27 -61 8 -43 101 -19 129 33 22 40
16 133 -11 180 l-23 41 22 35 c28 46 27 58 -14 94 -38 34 -45 65 -17 87 79 65
82 68 82 98 0 25 -3 29 -20 25 -53 -14 -111 81 -118 193 -4 74 -4 76 37 136
52 78 113 134 146 134 16 0 31 -10 42 -27z m-1059 -16 c4 -20 -25 -34 -40 -19
-15 15 -1 44 19 40 10 -2 19 -11 21 -21z m-5370 -29 c-2 -13 -11 -24 -20 -26
-21 -4 -24 18 -6 36 19 19 30 14 26 -10z m7505 9 c3 -8 1 -20 -4 -28 -8 -12
-12 -11 -24 5 -8 11 -15 23 -15 28 0 14 38 9 43 -5z m-3821 -44 c25 -22 23
-27 -18 -49 l-36 -19 -19 24 c-36 44 -17 87 30 70 14 -6 34 -18 43 -26z
m-3610 -43 c20 -39 23 -81 8 -111 -21 -39 -120 -13 -120 32 0 12 7 19 19 19
30 0 51 28 51 67 0 43 16 40 42 -7z m3488 0 c0 -11 -4 -20 -10 -20 -5 0 -10 9
-10 20 0 11 5 20 10 20 6 0 10 -9 10 -20z m2535 10 c-3 -5 -12 -10 -20 -10 -8
0 -17 5 -20 10 -4 6 5 10 20 10 15 0 24 -4 20 -10z m-4923 -34 c71 -17 74 -19
97 -64 29 -56 51 -71 125 -81 85 -12 116 -31 116 -71 0 -27 -3 -30 -33 -30
-18 0 -71 -10 -117 -21 -92 -23 -165 -21 -206 6 -22 14 -24 23 -24 88 0 62 -4
78 -25 107 -28 38 -30 51 -13 68 14 14 10 15 80 -2z m4739 -7 c6 -12 13 -57
16 -100 3 -44 11 -83 17 -88 6 -4 40 -11 75 -14 81 -7 115 -30 119 -80 3 -32
-1 -39 -35 -61 -44 -28 -142 -59 -175 -54 -26 4 -37 -15 -68 -116 -24 -79 -53
-126 -79 -126 -10 0 -50 35 -88 78 l-70 77 64 70 c113 123 115 156 8 116 -57
-22 -185 -30 -185 -12 0 20 42 107 62 129 15 15 33 22 60 22 25 0 45 7 58 20
11 11 22 20 24 20 2 0 7 -18 11 -40 4 -23 14 -44 25 -50 30 -16 50 10 59 76
17 117 72 189 102 133z m-4477 -14 c29 -27 34 -50 10 -59 -30 -11 -61 -6 -79
14 -15 17 -16 24 -7 45 15 32 42 32 76 0z m3980 -17 c20 -28 20 -52 2 -67 -33
-27 -78 28 -56 69 14 26 35 25 54 -2z m-5098 -32 c57 -57 44 -90 -68 -165 -58
-39 -61 -63 -18 -127 44 -63 74 -76 159 -68 98 9 121 -6 121 -80 0 -44 5 -60
26 -86 63 -74 149 -88 261 -41 131 56 199 61 258 17 19 -13 19 -16 2 -68 -9
-30 -31 -76 -48 -101 -17 -26 -29 -54 -26 -61 3 -8 32 -19 64 -26 88 -17 114
-27 173 -65 70 -45 86 -34 48 36 -35 62 -35 77 1 142 16 28 27 57 24 64 -2 6
-28 23 -58 38 -58 28 -174 137 -224 209 -34 49 -40 96 -15 120 34 35 85 8 115
-60 15 -36 27 -48 63 -63 50 -22 69 -45 92 -113 8 -26 21 -51 27 -55 7 -5 46
-10 87 -13 94 -6 96 -13 41 -125 -47 -95 -49 -105 -21 -105 14 0 29 17 50 54
43 76 53 83 95 63 35 -17 90 -87 100 -128 9 -36 -9 -73 -55 -118 -55 -54 -73
-58 -131 -31 -59 28 -71 21 -93 -55 -22 -73 -37 -77 -180 -49 -84 17 -174 14
-206 -6 -23 -15 -2 -40 70 -82 86 -50 107 -72 90 -92 -7 -9 -23 -16 -37 -16
-41 0 -81 -28 -109 -75 -39 -67 -67 -85 -131 -85 -47 0 -59 4 -84 29 -38 38
-37 72 2 147 17 32 40 76 51 97 25 47 18 84 -19 93 -39 10 -66 -27 -58 -78 8
-46 -5 -49 -56 -15 -25 17 -33 30 -31 47 5 49 -57 81 -106 56 -61 -31 -113 38
-132 174 -14 98 -19 103 -95 85 -77 -19 -100 -19 -119 1 -29 29 -20 68 29 117
47 48 53 65 33 85 -45 45 -131 -33 -153 -138 -14 -68 -29 -80 -95 -80 -63 0
-100 21 -100 55 0 18 29 76 69 140 35 56 58 132 44 146 -7 7 -23 -5 -49 -36
-43 -53 -74 -69 -117 -59 -20 4 -33 16 -43 40 -19 45 -18 138 1 168 14 21 13
31 -9 117 -14 52 -28 102 -31 112 -4 9 -5 17 -3 17 2 0 53 -11 113 -25 182
-41 198 -37 286 77 33 43 67 78 76 78 8 0 30 -15 49 -34z m1232 22 c7 -7 12
-19 12 -27 0 -11 -4 -10 -20 4 -21 19 -26 35 -12 35 4 0 13 -5 20 -12z m2662
-13 c0 -8 -4 -17 -10 -20 -6 -4 -10 5 -10 20 0 15 4 24 10 20 6 -3 10 -12 10
-20z m1038 -66 c33 -14 47 -28 62 -61 24 -54 25 -100 3 -121 -10 -8 -39 -25
-65 -36 -27 -11 -48 -24 -48 -28 1 -4 15 -17 33 -28 43 -27 57 -59 57 -131 0
-78 -20 -134 -71 -200 -22 -29 -55 -81 -72 -116 -26 -50 -40 -67 -73 -83 -22
-11 -56 -32 -76 -47 -41 -33 -96 -37 -159 -12 -38 16 -40 19 -36 48 20 121 17
115 50 118 33 3 51 27 62 82 7 32 20 32 107 1 40 -14 50 -15 75 -3 37 17 74
92 80 165 4 50 2 63 -20 94 -39 58 -50 104 -51 233 -1 153 1 160 57 151 23 -4
61 -15 85 -26z m-459 -146 c33 -67 56 -199 52 -305 -1 -46 -42 -98 -77 -98
-28 0 -76 47 -95 92 -10 25 -7 40 20 116 37 103 37 113 11 137 -28 25 -25 39
13 69 43 34 53 33 76 -11z m-3077 3 c111 -16 118 -19 111 -46 -3 -12 7 -38 26
-67 25 -38 31 -57 29 -88 l-3 -40 55 -3 c31 -2 66 1 79 6 22 8 27 3 53 -47 36
-68 32 -85 -30 -149 -118 -121 -275 -76 -401 115 -22 33 -41 50 -59 53 -41 8
-35 35 8 35 32 0 35 3 38 33 3 25 -7 51 -37 101 -46 75 -48 86 -23 100 22 14
39 13 154 -3z m5044 -32 c18 -8 42 -24 54 -36 37 -40 19 -151 -23 -135 -9 3
-27 23 -40 44 -26 41 -47 61 -80 78 -26 13 -33 40 -16 61 13 16 46 12 105 -12z
m-5307 -8 c41 -22 61 -59 61 -112 0 -39 -5 -51 -34 -80 -52 -52 -62 -46 -75
41 -14 97 -14 138 1 153 15 15 13 15 47 -2z m2322 -86 c25 -14 49 -62 49 -97
0 -16 -19 -59 -45 -100 -60 -97 -65 -120 -30 -133 14 -5 46 -10 70 -10 61 0
79 -20 73 -82 -6 -62 -35 -94 -103 -114 -29 -8 -60 -21 -71 -28 -16 -12 -16
-16 -4 -30 7 -10 33 -29 57 -42 82 -49 118 -120 73 -144 -12 -6 -70 -11 -129
-11 -172 0 -211 27 -172 117 22 49 27 84 12 84 -5 0 -39 -14 -76 -31 -61 -29
-70 -31 -105 -20 -79 23 -94 98 -35 175 61 80 50 91 -115 100 -78 4 -118 10
-128 20 -35 35 20 136 91 170 27 12 40 13 70 4 49 -15 104 -62 121 -103 12
-27 21 -34 47 -37 26 -2 41 -15 79 -62 25 -33 52 -62 59 -64 35 -12 43 89 11
131 -33 41 -21 63 32 59 44 -4 68 44 68 138 0 52 5 82 16 98 16 24 53 29 85
12z m310 -101 c32 -35 46 -90 31 -122 -5 -12 -34 -48 -62 -80 -29 -32 -51 -59
-49 -61 2 -2 27 -15 54 -29 69 -35 107 -77 103 -113 -4 -42 -72 -74 -153 -74
-88 0 -91 4 -65 89 30 98 25 170 -16 212 -53 55 -34 132 46 187 45 30 76 28
111 -9z m955 12 c48 -22 70 -63 60 -114 -8 -45 -36 -69 -81 -69 -60 0 -75 22
-75 112 0 42 3 80 7 83 11 12 47 7 89 -12z m1101 -6 c11 -8 26 -28 31 -44 13
-37 -5 -55 -63 -66 -22 -3 -62 -19 -89 -33 -72 -39 -79 -62 -65 -215 10 -108
10 -127 -4 -154 -19 -36 -87 -73 -135 -73 -42 0 -56 28 -55 110 2 99 34 186
92 253 27 30 63 80 80 110 38 67 46 73 100 86 24 5 51 17 60 25 19 20 21 20
48 1z m-1809 -50 c7 -22 17 -59 23 -83 11 -45 39 -82 64 -82 8 0 26 12 39 27
33 36 44 25 62 -63 15 -71 13 -90 -6 -55 -13 25 -26 26 -46 6 -9 -8 -27 -18
-42 -21 -50 -10 -72 -23 -72 -43 0 -25 -25 -44 -49 -36 -32 10 -89 81 -101
124 -10 39 -5 86 25 218 6 24 50 54 75 50 8 -1 21 -20 28 -42z m-1924 -61 c19
-18 20 -28 6 -55 -13 -23 -31 -24 -70 -4 -31 16 -42 58 -17 68 26 11 66 6 81
-9z m554 4 c7 -7 12 -22 12 -34 0 -13 15 -34 38 -52 31 -26 35 -34 26 -49 -17
-28 -39 -27 -85 7 -24 17 -62 36 -86 42 -54 13 -61 24 -34 52 38 37 107 56
129 34z m5201 -33 c17 -16 18 -60 2 -79 -18 -22 -48 -25 -71 -9 -18 13 -21 22
-17 50 4 19 11 41 18 49 13 16 45 10 68 -11z m-5519 0 c16 -8 56 -37 89 -65
64 -54 81 -60 82 -32 0 13 4 12 17 -8 9 -14 36 -46 59 -71 24 -25 43 -56 43
-67 0 -12 -11 -51 -25 -88 -36 -97 -34 -144 11 -193 45 -51 88 -65 176 -59 86
7 108 -7 115 -73 5 -41 2 -50 -25 -80 -29 -32 -34 -34 -99 -34 -50 0 -80 6
-114 23 -67 33 -125 86 -132 122 -6 25 -11 30 -35 30 -16 0 -49 -7 -72 -15
-57 -20 -89 -19 -126 4 -47 29 -61 78 -39 144 9 28 28 70 41 93 30 52 30 65
-2 95 -45 42 -76 105 -81 167 -10 106 36 149 117 107z m3080 -35 c0 -5 -9 -10
-20 -10 -11 0 -20 5 -20 10 0 6 9 10 20 10 11 0 20 -4 20 -10z m-30 -134 c-14
-14 -24 0 -16 21 6 15 8 15 16 3 6 -9 5 -19 0 -24z m-3436 3 c31 -14 50 -67
41 -110 -4 -18 -29 -53 -61 -85 -30 -29 -54 -60 -54 -69 0 -20 35 -55 55 -55
9 0 27 -11 41 -25 l25 -25 -33 -58 c-32 -56 -33 -59 -33 -179 0 -114 2 -124
23 -145 18 -18 33 -23 68 -21 60 2 184 24 184 33 0 3 -18 16 -39 28 -52 29
-97 83 -112 131 -10 34 -9 44 5 66 38 57 130 17 150 -66 9 -34 20 -49 53 -72
74 -49 80 -137 16 -245 -58 -101 -50 -131 41 -162 36 -12 76 -30 90 -41 41
-32 64 -24 133 44 86 86 86 105 -1 195 -35 37 -68 77 -75 89 -14 27 -14 60 0
68 6 4 65 14 130 22 138 17 158 11 185 -52 31 -74 4 -153 -61 -180 -46 -20
-50 -30 -27 -68 11 -17 28 -57 37 -89 17 -61 34 -82 62 -76 25 4 53 65 53 115
0 23 3 48 6 57 14 37 113 2 136 -49 9 -19 8 -34 -2 -64 -14 -44 -9 -74 19
-111 19 -23 24 -25 105 -22 50 2 94 -2 107 -8 34 -19 49 -69 43 -146 -7 -88 5
-108 40 -75 35 33 41 57 22 86 -23 35 -21 38 24 30 22 -4 40 -4 40 0 0 4 -16
35 -35 69 -52 94 -44 135 10 55 46 -65 109 -86 165 -54 39 22 57 18 69 -16 16
-45 14 -80 -10 -181 -17 -72 -19 -95 -10 -115 11 -24 14 -25 71 -19 103 12
157 -38 148 -136 -6 -53 -34 -91 -96 -130 -39 -24 -35 -30 38 -53 166 -54 143
-174 -53 -273 -46 -23 -110 -65 -141 -92 -52 -46 -61 -50 -107 -50 -57 0 -98
18 -128 56 -36 46 -28 67 37 102 68 36 100 68 86 82 -7 7 -27 3 -60 -11 -56
-25 -177 -38 -188 -20 -12 20 -25 12 -52 -31 -63 -102 -121 -103 -207 -3 l-33
38 -12 -40 c-7 -22 -18 -45 -25 -50 -12 -10 -117 -25 -191 -27 -31 -1 -43 4
-58 25 -74 98 17 319 130 319 31 0 42 -4 47 -19 3 -10 18 -23 33 -29 96 -37
142 -51 142 -43 0 5 -11 29 -25 53 -65 117 -29 238 80 263 41 10 75 32 75 50
0 8 -40 59 -90 112 -49 54 -99 117 -110 140 -29 62 -63 76 -192 81 -126 5
-158 -1 -158 -27 0 -21 22 -33 45 -25 31 12 68 -9 135 -77 l69 -70 44 6 c55 9
67 -7 67 -87 0 -68 -16 -127 -43 -155 -38 -42 -75 -24 -137 68 -23 32 -47 59
-56 59 -21 0 -34 -42 -34 -111 0 -38 -4 -59 -12 -59 -6 0 -26 -11 -44 -25 -18
-14 -35 -25 -38 -25 -3 0 -43 34 -88 76 -46 42 -95 82 -109 90 -57 29 -52 180
7 219 18 12 24 24 24 53 0 64 -60 107 -119 85 -22 -8 -26 -14 -24 -45 3 -48
-25 -73 -83 -73 -36 0 -49 6 -76 33 -31 31 -33 36 -33 106 0 55 -3 72 -13 69
-25 -10 -33 -44 -31 -140 1 -83 -1 -98 -17 -110 -64 -47 -159 54 -139 148 4
16 18 38 32 49 32 25 22 40 -57 80 -81 41 -116 74 -134 126 -8 25 -29 61 -46
81 -17 19 -34 48 -37 65 -7 36 -26 45 -59 27 -40 -21 -67 -75 -73 -148 l-6
-66 -24 40 c-37 61 -82 105 -109 105 -23 0 -23 0 -5 -30 22 -39 15 -45 -79
-60 -109 -19 -158 9 -158 90 0 36 -31 70 -65 70 -15 0 -44 -18 -75 -45 -46
-41 -55 -45 -103 -45 -62 0 -77 11 -77 60 -1 65 -18 114 -50 140 -16 14 -30
33 -30 43 0 19 55 57 83 57 23 0 76 -29 156 -85 35 -25 73 -45 86 -45 13 0 52
14 89 31 l66 31 69 -16 c39 -9 92 -16 120 -16 42 0 53 4 70 26 24 31 27 60 6
67 -8 4 -18 21 -23 39 -12 47 -52 51 -91 9 -16 -17 -33 -31 -38 -30 -4 0 -26
24 -49 52 -22 29 -49 53 -61 55 -18 3 -22 -4 -28 -38 -9 -54 -28 -63 -136 -58
-99 3 -113 12 -104 62 17 95 235 266 362 283 34 4 55 14 74 34 35 37 68 49
137 49 82 0 90 -8 72 -67 -7 -26 -14 -66 -14 -88 -1 -34 2 -40 21 -43 13 -2
35 9 55 27 33 29 33 30 36 128 2 112 9 127 86 182 53 38 149 80 183 81 12 0
33 -5 47 -11z m6045 -27 c40 -24 56 -26 150 -27 104 0 105 0 120 -27 14 -24
14 -31 1 -60 -33 -74 -8 -238 36 -238 11 0 14 -6 9 -22 -17 -55 -41 -83 -85
-97 -67 -20 -72 -24 -108 -72 -56 -75 -69 -88 -97 -95 -41 -10 -58 14 -66 97
-10 111 -40 121 -52 16 -7 -55 -25 -81 -49 -72 -62 24 -28 180 47 211 54 22
57 69 9 127 -26 31 -25 36 20 96 27 36 27 38 -15 92 -38 48 -46 84 -22 98 22
12 44 7 102 -27z m-5164 -42 c44 0 73 -38 89 -120 8 -41 16 -91 18 -110 l3
-35 -65 -11 c-94 -17 -182 -17 -205 0 -16 11 -20 29 -23 88 -3 70 -2 76 33
128 30 47 35 61 29 92 l-6 38 52 -35 c29 -19 63 -35 75 -35z m1567 53 c10 -9
18 -25 18 -35 0 -16 -6 -19 -32 -16 -33 3 -46 23 -34 54 7 19 25 18 48 -3z
m4014 -89 c10 -41 -10 -74 -46 -74 -35 0 -38 13 -13 65 20 42 50 47 59 9z
m-8364 -82 c16 -15 22 -39 27 -108 9 -100 7 -111 -19 -119 -31 -10 -68 15 -85
57 l-16 40 -54 -51 c-50 -48 -68 -56 -105 -51 -27 3 -40 33 -39 89 0 78 18
121 59 149 32 22 42 24 124 19 71 -4 92 -9 108 -25z m4398 -22 c0 -11 -4 -20
-10 -20 -5 0 -10 9 -10 20 0 11 5 20 10 20 6 0 10 -9 10 -20z m380 6 c0 -8 -4
-17 -9 -21 -12 -7 -24 12 -16 25 9 15 25 12 25 -4z m-863 -58 c4 -7 11 -47 15
-88 4 -41 10 -90 13 -107 6 -28 2 -40 -31 -82 -20 -28 -41 -48 -46 -45 -4 3
-8 29 -8 58 0 45 -4 58 -31 85 -54 57 -89 171 -56 184 26 11 136 7 144 -5z
m-4343 -30 c31 -44 11 -127 -39 -166 -33 -26 -62 -28 -87 -5 -21 19 -22 35 -4
86 33 92 96 134 130 85z m4496 -13 c15 -18 9 -50 -9 -50 -19 0 -36 29 -28 49
8 20 21 21 37 1z m2394 -8 c12 -19 3 -32 -19 -24 -17 7 -21 51 -3 45 6 -2 16
-12 22 -21z m-2474 -41 c-14 -14 -24 0 -16 21 6 15 8 15 16 3 6 -9 5 -19 0
-24z m680 8 c0 -8 -4 -14 -10 -14 -5 0 -10 9 -10 21 0 11 5 17 10 14 6 -3 10
-13 10 -21z m-1564 -28 c46 -46 47 -91 3 -141 -37 -42 -67 -45 -142 -13 -77
31 -79 35 -56 95 36 95 130 124 195 59z m4139 5 c30 -14 35 -20 20 -21 -47 -5
-91 6 -99 25 -8 21 29 19 79 -4z m-3596 -1 c51 -27 63 -205 16 -224 -24 -9
-124 33 -141 60 -18 27 -12 54 11 54 9 0 25 20 38 48 37 79 41 81 76 62z m559
-28 c4 -24 -7 -29 -26 -10 -18 18 -15 40 6 36 9 -2 18 -13 20 -26z m-4033 -84
c18 -46 51 -88 70 -88 6 0 20 -6 30 -14 18 -13 18 -15 2 -40 -38 -57 -105 -16
-145 89 -22 57 -28 96 -16 108 13 13 42 -14 59 -55z m4600 31 c9 -14 -13 -66
-31 -73 -10 -4 -14 3 -14 23 0 16 3 36 6 45 7 18 30 21 39 5z m-5039 -69 c38
-33 76 -60 85 -60 9 0 49 14 89 32 81 36 93 33 123 -23 15 -28 17 -48 12 -111
-5 -66 -4 -78 11 -86 22 -12 59 -2 123 34 49 28 50 28 86 11 43 -21 68 -70 58
-118 -4 -21 -24 -49 -54 -78 -31 -29 -51 -58 -55 -79 -9 -47 8 -62 71 -62 70
0 90 -24 100 -118 8 -82 -5 -124 -38 -122 -64 6 -63 -19 3 -81 67 -62 66 -82
-6 -160 -70 -76 -71 -104 -6 -103 46 1 82 22 116 68 18 23 22 47 26 144 6 135
22 179 79 218 79 53 221 14 221 -61 0 -14 -15 -41 -35 -63 -40 -45 -58 -87
-49 -114 7 -23 70 -53 130 -63 39 -6 84 -35 84 -55 0 -17 -32 -40 -57 -40 -36
0 -85 -26 -123 -65 -36 -37 -70 -45 -89 -21 -15 18 -45 26 -61 16 -10 -6 -8
-15 9 -38 26 -38 26 -38 -5 -79 -64 -84 -174 -83 -174 3 0 12 -6 27 -14 33
-12 10 -19 8 -35 -8 -12 -12 -21 -29 -21 -38 0 -10 -12 -43 -26 -73 -26 -55
-27 -55 -38 -29 -22 52 -35 59 -100 59 -40 0 -76 -7 -106 -21 -25 -12 -70 -23
-100 -26 -47 -5 -58 -2 -74 16 -13 14 -20 35 -19 58 1 30 10 44 52 83 48 44
64 81 42 95 -5 3 -44 -8 -86 -25 -121 -48 -148 -39 -160 52 -14 121 -18 138
-29 153 -10 15 -16 14 -56 -4 -61 -28 -168 -29 -201 -2 -22 17 -24 27 -24 103
0 65 4 90 18 112 18 27 18 29 -3 78 -35 82 -6 131 65 108 47 -15 54 -27 70
-118 28 -159 81 -207 214 -195 l61 6 0 -40 c0 -26 -8 -50 -25 -73 -15 -20 -21
-38 -16 -43 11 -11 205 27 277 54 72 27 134 97 134 151 0 32 -68 171 -80 163
-16 -10 -32 -85 -24 -118 l6 -32 -27 25 c-15 14 -36 44 -47 68 -22 50 -52 72
-108 79 -47 7 -71 -10 -101 -69 -10 -20 -30 -45 -45 -57 -29 -23 -47 -18 -91
22 -30 27 -29 55 3 98 54 72 82 157 56 173 -4 2 -40 -5 -80 -17 l-73 -21 -45
24 c-59 31 -70 51 -54 104 16 54 44 92 73 100 36 9 80 -8 186 -68 114 -66 197
-96 261 -96 56 0 72 13 59 48 -20 52 -63 64 -123 36 -48 -24 -81 -12 -106 35
-11 22 -39 55 -63 75 -48 40 -141 86 -173 86 -40 0 -45 20 -29 105 8 42 20 84
26 91 22 27 55 14 125 -46z m3727 2 c10 -10 21 -42 26 -71 5 -32 16 -59 30
-72 25 -24 26 -37 4 -61 -17 -19 -68 -25 -78 -8 -3 5 -15 15 -25 20 -17 9 -29
2 -80 -45 -51 -47 -66 -55 -99 -55 -79 0 -123 87 -80 156 12 21 25 53 28 73 6
34 9 36 52 42 26 4 57 13 70 19 61 33 120 34 152 2z m3607 14 c0 -8 -4 -18
-10 -21 -5 -3 -10 3 -10 14 0 12 5 21 10 21 6 0 10 -6 10 -14z m-4720 -26 c0
-11 -7 -23 -15 -27 -21 -8 -28 1 -20 26 8 27 35 27 35 1z m5095 -30 c112 -73
105 -63 105 -140 0 -56 3 -70 15 -70 9 0 18 7 21 15 5 11 22 15 63 15 76 0
267 -35 296 -54 13 -9 30 -37 40 -66 16 -49 45 -80 75 -80 8 0 27 14 41 32 23
28 29 30 43 19 20 -17 39 -86 31 -112 -12 -36 3 -69 30 -69 55 0 56 65 5 191
-33 82 -58 109 -101 109 -16 0 -29 4 -29 9 0 31 26 114 37 118 22 8 58 -5 97
-36 20 -16 50 -32 66 -36 15 -3 31 -14 35 -23 19 -48 32 -514 16 -571 -5 -20
-17 -27 -60 -37 -29 -6 -62 -20 -72 -31 -19 -18 -18 -19 6 -55 14 -20 25 -41
25 -47 0 -19 -45 -41 -86 -41 -26 0 -51 -7 -67 -20 -14 -11 -32 -20 -41 -20
-22 0 -154 134 -162 164 -14 56 28 152 61 140 8 -3 25 -25 39 -48 14 -24 32
-49 42 -56 14 -13 19 -11 35 9 15 18 19 39 19 95 0 39 -4 77 -9 85 -5 7 -38
16 -78 21 -38 4 -79 13 -92 19 -27 15 -196 27 -235 17 -14 -3 -26 -13 -26 -21
0 -8 -6 -15 -13 -15 -30 0 -82 89 -73 125 3 12 23 44 45 70 44 53 58 90 41
110 -6 7 -43 18 -83 23 -39 6 -110 28 -156 48 l-84 36 -59 -16 c-80 -22 -103
-21 -127 10 -44 56 -17 134 57 162 40 15 185 60 197 61 6 0 37 -17 70 -39z
m-5045 -30 c0 -11 -4 -20 -10 -20 -5 0 -10 9 -10 20 0 11 5 20 10 20 6 0 10
-9 10 -20z m1408 -64 c21 -11 36 -36 65 -109 20 -52 37 -102 37 -111 0 -9 -9
-32 -19 -52 -12 -21 -22 -67 -26 -112 -10 -126 -14 -142 -40 -154 -30 -13
-118 13 -153 45 -20 19 -22 27 -16 74 5 45 2 61 -27 123 -39 85 -44 170 -15
232 31 64 130 97 194 64z m1034 -25 c5 -14 7 -47 3 -74 -7 -55 -2 -66 58 -129
59 -61 68 -100 33 -137 -15 -15 -23 -30 -19 -34 13 -13 64 -7 103 13 22 11 46
20 53 20 18 0 46 -41 53 -79 8 -38 36 -63 101 -91 28 -12 54 -28 57 -37 9 -21
-15 -60 -83 -136 -58 -65 -62 -67 -70 -45 -64 164 -91 212 -131 233 -38 20
-84 19 -127 -2 -31 -14 -33 -18 -17 -24 10 -4 33 -8 50 -8 47 -1 96 -40 118
-92 16 -41 17 -50 5 -75 -20 -42 -90 -73 -194 -85 -116 -13 -118 -11 -113 103
3 74 8 93 29 120 22 30 24 42 24 133 -1 96 -16 194 -34 224 -8 12 -16 9 -45
-16 -72 -64 -106 -53 -131 40 -25 92 -20 107 44 141 75 40 178 75 202 69 11
-3 25 -17 31 -32z m-1782 -46 c10 -9 20 -29 23 -44 4 -17 14 -31 27 -34 14 -3
18 -10 14 -22 -4 -9 2 -28 13 -43 11 -15 26 -45 33 -66 17 -53 19 -191 2 -208
-22 -22 -64 11 -97 77 -22 45 -39 64 -65 76 -44 21 -130 112 -130 137 0 11 7
25 15 32 9 7 30 37 48 67 30 52 34 54 66 49 18 -3 41 -12 51 -21z m-2550 -80
c16 -8 40 -34 54 -58 48 -82 57 -257 13 -265 -20 -4 -74 48 -100 97 -9 18 -26
35 -37 38 -38 10 -38 108 0 171 22 36 29 38 70 17z m1929 -80 c36 -42 39 -76
11 -122 -14 -23 -27 -33 -44 -33 -30 0 -66 43 -66 79 1 37 36 111 53 111 8 0
29 -16 46 -35z m-1429 -176 c29 -23 66 -63 82 -89 21 -34 35 -47 46 -43 12 5
14 1 8 -23 -4 -16 -9 -48 -13 -71 -3 -24 -8 -43 -12 -43 -3 0 -28 7 -55 15
-27 8 -64 15 -82 15 -27 0 -46 12 -97 59 -35 33 -72 75 -82 95 -16 30 -17 37
-4 52 14 18 125 74 146 74 6 0 35 -18 63 -41z m2280 -9 c0 -11 -4 -20 -10 -20
-5 0 -10 9 -10 20 0 11 5 20 10 20 6 0 10 -9 10 -20z m-1766 -61 c49 -23 54
-113 12 -214 -18 -42 -39 -52 -72 -35 -76 41 -92 189 -26 240 28 23 50 25 86
9z m-215 -33 c28 -30 21 -66 -13 -66 -18 0 -25 7 -29 28 -3 15 -9 35 -12 45
-11 26 27 22 54 -7z m2741 -96 c0 -11 -4 -20 -10 -20 -5 0 -10 9 -10 20 0 11
5 20 10 20 6 0 10 -9 10 -20z m3745 10 c-8 -13 -35 -13 -55 0 -11 7 -5 10 23
10 23 0 36 -4 32 -10z m-6589 -127 c8 -52 -1 -93 -21 -93 -33 0 -45 70 -24
145 l11 39 14 -24 c7 -14 16 -44 20 -67z m4217 50 c-4 -10 -9 -11 -16 -4 -5 5
-7 18 -3 28 6 14 9 15 16 4 4 -8 6 -21 3 -28z m1002 -93 c7 -21 -10 -60 -25
-60 -15 0 -32 39 -25 60 4 11 15 20 25 20 10 0 21 -9 25 -20z m-4807 -28 c2
-14 -2 -22 -11 -22 -17 0 -30 27 -21 41 9 16 29 4 32 -19z m564 -24 c-10 -22
-11 -21 -11 12 -1 26 2 31 11 22 8 -8 8 -17 0 -34z m4358 -83 c8 0 17 11 20
25 13 49 52 19 92 -68 l28 -62 51 40 c138 109 210 60 154 -103 -40 -115 -26
-124 65 -40 35 32 65 52 69 47 5 -5 23 -29 40 -53 37 -53 39 -88 12 -222 -27
-128 -35 -146 -73 -162 -18 -8 -64 -40 -102 -71 -68 -56 -105 -74 -125 -62
-28 18 -43 193 -18 214 6 6 35 10 63 9 59 -2 84 13 84 53 0 33 -17 49 -62 56
-61 10 -114 -12 -153 -63 -33 -44 -61 -69 -179 -166 -25 -21 -46 -45 -46 -52
0 -22 11 -19 58 16 52 38 105 38 134 -2 18 -24 18 -29 5 -62 -17 -40 -82 -92
-136 -108 -53 -16 -88 1 -111 53 -20 46 -64 283 -57 302 3 7 23 18 46 25 50
14 56 45 14 63 -46 19 -63 39 -63 72 0 24 9 39 42 67 37 33 42 42 49 95 4 32
8 97 8 144 1 47 4 96 8 109 5 21 9 17 37 -35 17 -33 38 -59 46 -59z m-5005 77
c17 -11 41 -35 55 -55 33 -49 45 -51 74 -17 14 17 27 30 29 30 3 0 8 -25 12
-56 l7 -56 24 23 c19 18 24 19 24 7 0 -25 21 -27 93 -5 l67 20 25 -23 c13 -12
34 -28 47 -34 13 -7 30 -32 41 -61 32 -84 27 -80 109 -80 52 0 81 -5 93 -15
29 -24 45 -74 45 -140 l0 -60 -57 0 c-94 0 -220 18 -255 36 -18 9 -57 39 -85
66 -119 111 -204 91 -118 -28 53 -73 75 -108 75 -118 0 -15 -66 -72 -103 -89
-87 -42 -137 -11 -177 107 -30 92 -90 136 -185 136 -25 0 -135 -60 -135 -74 0
-1 21 0 46 4 61 9 91 2 114 -28 27 -34 25 -50 -12 -80 -67 -56 -98 -91 -98
-110 0 -17 7 -19 68 -18 56 1 78 -4 134 -31 76 -36 146 -100 155 -143 7 -37
25 -52 65 -54 28 -1 35 -8 59 -55 15 -29 35 -61 45 -72 20 -23 22 -66 2 -86
-9 -8 -50 -19 -94 -24 -94 -12 -109 -24 -154 -118 -69 -145 -111 -146 -218 -2
-29 39 -65 41 -88 6 -14 -21 -15 -32 -4 -72 20 -81 87 -197 161 -278 39 -42
75 -89 80 -103 18 -47 23 -256 9 -348 -15 -96 -13 -104 56 -199 32 -44 35 -54
29 -90 -4 -22 -7 -52 -6 -67 0 -21 -7 -32 -28 -43 -20 -10 -33 -28 -42 -57
-11 -34 -20 -43 -45 -50 -37 -9 -58 -39 -85 -116 -38 -110 -21 -216 60 -366
17 -32 31 -65 31 -72 0 -7 -13 -29 -30 -47 -33 -38 -39 -77 -14 -98 67 -55
153 -265 180 -436 5 -36 3 -45 -19 -67 -16 -16 -37 -26 -56 -26 -19 0 -44 -12
-70 -34 -57 -48 -80 -54 -103 -26 -10 12 -18 33 -18 46 0 44 -48 83 -122 99
-36 7 -80 21 -97 29 -49 26 -101 76 -101 98 0 16 -5 19 -25 16 l-25 -5 21 34
c20 32 20 35 4 53 -13 14 -20 56 -30 177 -13 157 -30 233 -51 240 -17 6 -24
-20 -34 -141 -6 -61 -14 -132 -18 -157 -6 -30 -3 -93 7 -173 15 -133 10 -178
-21 -184 -21 -4 -52 78 -67 178 -29 196 -52 760 -32 760 23 0 94 -135 109
-209 19 -88 71 -22 92 116 10 66 10 75 -12 125 -37 86 -29 248 13 248 4 0 17
-10 29 -22 14 -15 23 -19 31 -11 15 15 27 115 38 318 5 99 13 188 16 198 11
28 40 20 79 -23 42 -46 41 -44 20 -101 -14 -36 -17 -92 -19 -314 -1 -148 -5
-290 -9 -315 -3 -25 -15 -112 -27 -193 -29 -209 -18 -252 57 -207 30 19 38 20
45 9 5 -8 9 -18 9 -22 0 -5 8 -7 17 -5 26 5 32 58 22 172 -16 179 -16 191 7
182 12 -5 15 -2 9 11 -25 62 -26 89 -9 192 16 100 16 117 1 293 -9 103 -14
194 -11 203 25 64 130 -65 149 -185 l8 -45 14 40 c23 64 11 126 -53 270 -40
90 -59 147 -62 185 -3 33 -13 65 -25 82 -14 19 -22 51 -27 106 -8 90 -14 105
-41 97 -30 -10 -75 46 -99 122 -11 36 -20 76 -20 88 0 86 106 205 182 205 32
0 129 63 192 124 48 47 48 48 44 102 -5 57 -28 94 -58 94 -21 0 -37 -18 -70
-79 -44 -80 -80 -58 -80 49 0 49 -9 60 -48 60 -9 0 -50 16 -91 37 -74 36 -147
51 -195 39 -49 -12 -74 -109 -39 -148 20 -22 40 -23 125 -1 91 23 102 14 95
-77 -7 -88 -32 -164 -66 -202 -25 -28 -36 -32 -93 -36 -86 -6 -130 14 -152 69
-9 22 -16 55 -16 73 0 68 -36 68 -114 -1 -32 -29 -44 -34 -69 -29 -58 12 -87
60 -87 146 0 63 11 85 62 131 45 39 44 59 -2 59 -19 0 -36 10 -54 31 -45 54
-29 167 32 222 32 30 141 39 309 28 81 -5 163 -15 181 -22 37 -13 59 -2 49 25
-10 25 -88 68 -169 93 -121 38 -175 104 -103 127 17 6 65 36 108 68 84 62 177
99 201 79 7 -6 16 -35 19 -65 7 -66 21 -96 47 -96 33 0 57 63 63 172 3 53 11
106 18 119 l12 23 8 -22 c9 -24 24 -29 35 -11 12 19 68 49 94 49 14 0 39 -8
55 -18z m3725 -56 c0 -18 -2 -18 -14 -6 -8 8 -17 26 -21 40 -8 25 -8 25 14 6
11 -11 21 -28 21 -40z m2535 30 c9 -13 20 -60 24 -104 5 -44 16 -92 26 -109
46 -77 -34 -184 -155 -207 -22 -4 -54 0 -88 10 -46 15 -55 15 -63 3 -14 -21
-1 -79 26 -119 30 -43 41 -79 50 -149 3 -30 8 -58 11 -63 3 -4 23 1 44 12 45
23 78 25 115 8 54 -24 37 -95 -37 -148 -22 -17 -46 -30 -51 -30 -6 0 -19 -7
-28 -16 -14 -13 -16 -21 -8 -36 14 -25 13 -142 -1 -167 -28 -53 -256 -34 -322
26 -33 29 -22 59 50 135 109 116 118 139 88 213 -14 33 -16 34 -78 37 -57 3
-63 5 -66 26 -4 27 41 102 61 102 8 0 33 -16 56 -37 34 -29 45 -33 52 -22 5 8
9 18 9 22 0 9 -37 44 -71 68 -22 15 -24 24 -24 89 0 68 2 73 31 99 17 16 72
45 122 66 124 51 127 55 115 154 -13 98 -8 128 26 146 39 21 68 18 86 -9z
m-8129 -191 c75 -88 116 -148 169 -245 79 -146 120 -196 169 -206 68 -12 71
-8 68 87 -4 95 2 106 67 128 53 17 79 14 97 -14 21 -33 12 -84 -32 -175 -19
-39 -34 -76 -34 -82 0 -6 25 -37 55 -69 77 -81 76 -98 -16 -188 -54 -53 -70
-75 -67 -93 5 -35 36 -35 68 0 30 33 71 45 139 40 35 -2 45 -7 47 -23 2 -11 8
-21 13 -23 17 -6 13 -42 -9 -91 -42 -93 -16 -117 61 -56 57 45 94 46 117 4 14
-24 22 -29 45 -26 37 5 36 -20 -4 -61 -43 -44 -89 -57 -199 -56 -163 2 -308
52 -385 135 -25 26 -45 53 -45 59 0 6 18 42 40 79 22 37 40 79 40 93 0 14 7
41 15 60 12 31 12 38 -1 57 -8 12 -33 30 -56 42 -37 19 -41 19 -61 5 -12 -9
-32 -23 -45 -32 -12 -9 -41 -17 -64 -17 -33 0 -47 6 -66 28 -21 25 -23 35 -18
74 3 25 13 68 22 94 22 66 12 75 -64 58 -112 -24 -131 -25 -139 -5 -4 10 3 43
16 78 43 114 40 117 -39 60 -29 -20 -67 -38 -89 -41 -34 -5 -40 -3 -47 18 -9
30 -9 316 0 346 5 15 23 27 56 38 28 9 50 21 50 26 0 28 37 -3 126 -106z
m7901 64 c7 -6 13 -18 13 -25 0 -20 -78 -102 -113 -121 -29 -14 -31 -14 -60
15 -23 23 -28 36 -23 55 8 32 59 84 89 90 30 7 77 -1 94 -14z m-2467 -19 c0
-5 -9 -10 -20 -10 -11 0 -20 5 -20 10 0 6 9 10 20 10 11 0 20 -4 20 -10z
m-3006 -43 c12 -19 3 -32 -19 -24 -17 7 -21 51 -3 45 6 -2 16 -12 22 -21z
m6131 -21 c15 -11 20 -31 24 -106 6 -85 8 -94 34 -114 30 -25 36 -66 11 -86
-49 -41 -37 -99 27 -124 40 -16 45 -26 40 -91 -3 -44 -30 -65 -89 -72 -58 -7
-93 -26 -77 -42 6 -6 39 -17 75 -26 83 -21 100 -40 100 -112 0 -74 -12 -93
-58 -93 -44 0 -115 41 -179 103 -47 45 -50 56 -29 90 8 12 18 54 22 92 8 84
21 113 68 149 48 36 48 66 2 66 -56 0 -85 17 -118 70 -26 42 -33 48 -49 39
-11 -5 -19 -14 -19 -19 0 -30 -122 -54 -148 -28 -30 30 1 130 54 179 51 47
158 108 234 133 28 9 56 6 75 -8z m-1045 -30 c0 -8 -4 -18 -10 -21 -5 -3 -10
3 -10 14 0 12 5 21 10 21 6 0 10 -6 10 -14z m160 -16 c0 -5 -9 -10 -20 -10
-11 0 -20 5 -20 10 0 6 9 10 20 10 11 0 20 -4 20 -10z m-1 -140 c49 -26 29
-80 -63 -178 -36 -38 -80 -76 -98 -83 -28 -12 -32 -11 -49 10 -48 59 3 195 89
241 40 21 93 26 121 10z m-6919 -111 c7 -11 9 -24 5 -27 -7 -7 -35 25 -35 40
0 16 19 8 30 -13z m6350 11 c0 -5 -9 -10 -20 -10 -11 0 -20 5 -20 10 0 6 9 10
20 10 11 0 20 -4 20 -10z m978 -46 c-3 -45 -17 -49 -38 -12 -13 24 -13 29 5
48 24 27 37 13 33 -36z m-5718 -35 c83 -66 93 -114 39 -190 -52 -73 -49 -126
11 -164 21 -14 44 -35 51 -47 10 -19 8 -24 -12 -41 -13 -10 -31 -33 -39 -50
-14 -29 -20 -32 -58 -31 -60 1 -93 29 -107 90 -7 27 -31 87 -54 133 -48 100
-54 166 -20 241 49 110 104 126 189 59z m335 3 c80 -27 80 -27 106 -82 45 -93
59 -101 198 -111 66 -4 130 -13 141 -19 31 -16 26 -60 -11 -98 -32 -33 -48
-40 -109 -44 -26 -2 -36 -8 -38 -23 -8 -47 -75 -59 -149 -26 -48 22 -63 45
-63 98 0 22 -11 59 -25 85 -14 26 -25 53 -25 61 0 10 -19 16 -67 20 -82 8
-117 30 -121 76 -4 35 17 67 53 82 26 10 17 11 110 -19z m-2048 -64 c-2 -13
-4 -3 -4 22 0 25 2 35 4 23 2 -13 2 -33 0 -45z m7692 -5 c16 -32 33 -135 27
-168 -8 -41 -50 -62 -99 -49 -27 8 -33 15 -35 42 -6 60 51 192 83 192 8 0 18
-8 24 -17z m-8560 -68 c11 -19 27 -35 36 -35 10 0 15 -10 15 -30 0 -37 -18
-120 -30 -140 -8 -13 -11 -13 -26 2 -14 13 -18 41 -22 128 -3 60 -2 110 1 110
3 0 14 -16 26 -35z m7620 -1 c52 -47 67 -90 47 -138 -8 -20 -27 -41 -41 -48
-22 -10 -30 -8 -68 21 -23 18 -57 41 -74 52 -18 12 -33 25 -33 29 0 13 105
120 118 120 6 0 30 -16 51 -36z m-7399 -28 c0 -8 -10 -22 -22 -30 -30 -22 -48
-3 -23 24 21 23 45 26 45 6z m7650 -51 c38 -19 38 -35 0 -87 -16 -22 -30 -49
-30 -60 0 -24 -82 -106 -115 -114 -36 -9 -40 0 -21 40 9 19 16 51 16 73 0 126
67 191 150 148z m-3346 -65 c13 -13 22 -41 27 -83 4 -35 9 -69 11 -76 2 -7 -5
-18 -14 -24 -14 -9 -23 -7 -47 10 -29 22 -31 22 -88 6 -77 -21 -93 -21 -106
-1 -15 22 6 88 40 129 34 40 99 71 133 63 14 -3 34 -14 44 -24z m-274 -4 c0
-8 -4 -17 -9 -20 -10 -7 -23 19 -14 28 11 11 23 6 23 -8z m3189 -92 c6 -14 14
-52 18 -84 5 -56 4 -60 -24 -89 -65 -65 -113 -48 -113 40 0 110 85 206 119
133z m-7110 -9 c55 -28 45 -52 -36 -84 -46 -19 -121 -16 -144 5 -25 23 -24 59
3 78 29 21 139 21 177 1z m3889 -7 c-2 -13 -11 -24 -20 -26 -21 -4 -24 18 -6
36 19 19 30 14 26 -10z m1000 -1 c4 -20 -25 -34 -40 -19 -15 15 -1 44 19 40
10 -2 19 -11 21 -21z m-406 -39 c-6 -6 -15 -9 -18 -5 -4 3 -4 14 0 23 5 13 9
15 18 6 9 -9 9 -15 0 -24z m698 -23 c9 -20 15 -61 15 -120 0 -75 -4 -97 -23
-133 -27 -51 -61 -70 -96 -54 -52 24 -52 132 0 251 43 96 75 114 104 56z
m-2640 5 c0 -11 -4 -20 -10 -20 -5 0 -10 9 -10 20 0 11 5 20 10 20 6 0 10 -9
10 -20z m490 6 c0 -8 -4 -17 -9 -21 -12 -7 -24 12 -16 25 9 15 25 12 25 -4z
m415 -75 c0 -43 5 -64 19 -80 26 -28 32 -98 13 -144 -19 -43 -41 -48 -82 -16
-30 24 -30 30 3 119 14 37 17 60 11 72 -12 22 -11 70 1 104 16 42 34 14 35
-55z m-130 6 c30 -52 31 -67 6 -67 -23 0 -39 19 -51 60 -18 64 9 67 45 7z
m1309 19 c25 -10 38 -26 55 -67 35 -80 38 -121 12 -165 -18 -31 -21 -46 -16
-85 6 -42 0 -63 -54 -199 l-61 -152 -124 -128 c-137 -142 -176 -205 -179 -286
0 -27 6 -115 15 -196 13 -120 20 -157 42 -198 14 -27 31 -74 37 -103 6 -28 25
-78 42 -109 l31 -57 -24 -58 c-19 -43 -25 -75 -24 -123 2 -82 25 -141 110
-276 35 -57 71 -119 80 -139 23 -56 201 -173 299 -196 79 -18 95 -27 95 -49 0
-15 -12 -27 -42 -40 -55 -25 -99 -25 -131 0 -14 11 -35 20 -47 20 -22 0 -80
-26 -80 -36 0 -4 24 -33 54 -65 30 -32 57 -67 61 -78 3 -11 -3 -39 -15 -65
-24 -54 -24 -60 -4 -80 43 -43 192 16 381 152 56 39 109 72 117 72 9 0 33 -16
55 -35 21 -19 44 -35 51 -35 6 0 40 16 76 36 72 40 150 53 206 35 19 -6 70
-34 113 -61 43 -27 94 -53 112 -56 45 -9 222 22 245 43 21 18 24 62 6 64 -7 1
-24 0 -38 0 -54 -4 -166 96 -252 222 -49 72 -64 108 -73 175 -5 35 -13 57 -26
65 -16 10 -17 13 -3 28 34 38 38 222 5 263 -14 17 -30 111 -41 241 -13 148
-18 179 -41 230 -53 116 16 241 161 294 108 40 143 88 102 142 -31 40 -45 88
-45 148 0 70 13 95 64 121 65 34 102 119 65 150 -34 27 -47 213 -17 243 7 7
58 14 134 17 101 4 122 8 125 21 2 10 -8 21 -27 28 -55 23 -63 95 -20 167 22
37 68 70 79 57 4 -4 15 -33 25 -63 23 -71 27 -76 103 -113 69 -34 89 -54 79
-81 -5 -12 -19 -16 -56 -16 -51 0 -75 -15 -50 -31 8 -5 23 -9 35 -9 48 0 75
-75 63 -170 -4 -30 -4 -59 1 -63 4 -5 39 5 78 22 81 36 82 36 82 15 0 -8 14
-47 30 -87 41 -94 47 -144 25 -191 -20 -42 -54 -55 -92 -35 -37 20 -123 126
-130 159 -7 38 -45 73 -74 68 -27 -3 -40 -38 -15 -38 44 0 60 -122 25 -190
-23 -44 -21 -82 12 -177 21 -63 16 -69 -52 -60 -58 8 -69 21 -69 82 0 65 -21
94 -94 130 -67 33 -88 25 -118 -42 -23 -52 -19 -76 20 -136 40 -61 37 -169
-12 -392 -51 -231 -87 -339 -136 -407 -69 -97 -76 -188 -16 -220 35 -19 126
-13 183 12 92 39 157 138 103 155 -25 8 -87 -9 -111 -31 -18 -16 -19 -16 -19
8 0 15 12 59 26 100 39 109 51 171 63 303 14 155 58 335 82 335 5 0 9 -10 9
-23 0 -15 16 -38 45 -64 50 -45 58 -79 29 -135 -9 -18 -13 -40 -9 -55 4 -17 0
-32 -12 -45 -14 -15 -19 -41 -22 -104 -2 -70 0 -91 19 -129 16 -33 21 -56 16
-83 -17 -114 -18 -148 -3 -185 19 -45 39 -47 140 -14 l67 22 -40 47 c-22 26
-47 63 -55 82 -28 66 -17 221 41 576 38 240 42 249 150 355 79 78 93 97 103
139 14 58 37 106 52 106 5 0 23 -10 39 -21 34 -25 60 -19 60 14 0 29 46 99 98
150 l39 38 38 -42 c64 -71 79 -118 80 -245 0 -126 -9 -153 -62 -178 -50 -24
-70 -79 -93 -254 -25 -187 -34 -228 -65 -303 -14 -33 -27 -83 -29 -110 -3 -32
-11 -59 -23 -72 -26 -28 -32 -46 -49 -141 -23 -133 -56 -162 -176 -159 -64 2
-78 0 -78 -13 0 -19 49 -39 115 -48 76 -10 105 -25 105 -51 0 -13 -11 -74 -24
-137 -14 -62 -30 -160 -35 -218 -6 -58 -14 -125 -16 -150 -7 -64 -41 -108
-152 -197 -54 -43 -98 -85 -98 -92 0 -25 66 -51 130 -51 76 0 126 23 185 84
24 25 49 46 56 46 6 0 23 -9 37 -20 31 -25 43 -25 92 0 48 24 140 27 211 5 65
-20 93 -19 132 5 72 44 64 83 -39 197 -74 81 -94 120 -109 206 -18 103 -3 363
23 395 18 23 66 43 125 52 79 13 106 44 122 141 7 41 20 110 30 154 15 61 20
135 23 315 4 231 15 308 43 317 5 2 38 -29 74 -68 60 -67 121 -108 162 -109
10 0 33 14 53 31 59 52 65 40 65 -116 0 -75 4 -144 10 -154 5 -10 23 -21 40
-24 24 -5 32 -13 36 -37 5 -24 12 -30 31 -30 50 0 15 -24 -49 -35 -101 -16
-109 -27 -132 -183 -27 -178 -78 -280 -161 -322 -39 -19 -51 -31 -53 -52 -4
-36 35 -62 96 -62 43 -1 46 1 70 44 36 65 123 170 154 186 72 37 140 2 173
-91 12 -32 37 -69 71 -103 45 -46 57 -53 86 -50 48 4 48 38 2 108 -74 112 -76
128 -44 306 11 60 27 161 35 224 17 130 37 200 65 225 16 15 23 15 55 4 38
-14 37 -15 64 30 13 22 41 5 41 -25 0 -42 -28 -139 -65 -223 -43 -98 -44 -130
-2 -205 57 -102 69 -88 92 105 9 74 24 150 32 169 10 24 15 77 16 170 2 113 5
141 20 164 14 21 22 25 30 17 19 -19 31 -895 19 -1448 -9 -468 -10 -483 -31
-509 -26 -34 -26 -48 0 -73 19 -17 23 -36 30 -138 4 -65 8 -214 8 -330 l1
-213 -1712 0 c-1913 1 -2960 11 -2982 29 -17 14 -62 19 -269 30 -95 5 -164 14
-170 20 -20 20 12 31 86 31 77 0 88 10 63 59 -29 55 -77 61 -105 13 -9 -15
-14 -13 -45 21 -53 56 -106 45 -106 -22 0 -11 -8 -24 -17 -29 -10 -5 -109 -12
-219 -15 -207 -5 -248 -13 -242 -45 3 -15 25 -17 225 -17 214 0 223 -1 244
-21 l21 -22 -23 -13 c-32 -18 -753 -25 -1086 -11 -218 9 -244 12 -270 31 -28
20 -97 40 -140 41 -16 0 -22 -7 -25 -27 -2 -22 -10 -29 -38 -36 -19 -5 -508
-12 -1092 -14 l-1058 -5 1 524 0 523 70 55 c39 30 88 74 108 97 33 37 39 51
44 105 3 35 13 81 22 102 l16 39 34 -77 c50 -115 88 -155 202 -215 54 -28 117
-65 140 -82 46 -35 67 -33 84 5 9 20 8 33 -10 68 -29 62 -86 125 -132 148 -77
40 -179 219 -204 359 -15 86 -33 136 -66 182 -30 43 -58 36 -86 -21 -11 -25
-27 -45 -35 -45 -19 0 -46 62 -64 146 -17 80 -24 287 -11 332 9 34 42 48 80
34 26 -9 28 -13 22 -41 -17 -79 -17 -127 -1 -151 24 -36 61 -33 81 6 21 40 54
207 64 329 9 93 28 153 103 322 36 80 105 131 147 108 30 -16 41 -72 41 -213
0 -135 4 -150 51 -205 18 -20 29 -44 29 -62 0 -30 -5 -33 -50 -31 -15 1 -34
-7 -45 -19 -18 -20 -20 -38 -20 -231 0 -132 4 -209 10 -210 6 -1 26 41 45 93
19 51 48 115 64 142 54 89 86 294 86 549 0 140 3 177 16 195 48 70 104 -43
104 -213 0 -59 -4 -87 -16 -104 -21 -29 -14 -105 16 -203 21 -68 33 -82 110
-131 24 -16 38 -34 46 -64 16 -53 31 -266 40 -535 l7 -207 -31 -63 c-35 -70
-98 -143 -136 -158 -28 -10 -62 -68 -49 -81 14 -14 273 -41 317 -33 28 4 55
20 90 53 67 62 95 81 123 81 16 0 23 6 23 20 0 25 5 25 30 0 20 -20 58 -32
237 -74 97 -22 134 -26 278 -26 154 0 166 -1 161 -17 -2 -10 -8 -38 -11 -63
-18 -117 -106 -221 -224 -264 -71 -26 -93 -42 -120 -86 -30 -49 -27 -73 15
-110 55 -48 150 -78 186 -59 28 15 22 27 -37 64 -30 20 -55 40 -55 45 0 11 8
13 259 74 101 25 188 43 193 40 4 -3 5 -16 2 -28 -8 -32 16 -52 73 -61 58 -8
83 -21 83 -40 0 -18 51 -20 68 -3 14 14 16 62 2 87 -5 10 -23 24 -40 31 -38
16 -38 23 3 54 54 41 118 66 174 66 70 0 90 -9 164 -75 91 -81 147 -107 239
-112 79 -4 122 9 128 38 2 9 -21 46 -50 82 -29 37 -61 77 -70 91 -36 50 -206
92 -251 63 l-24 -16 -6 59 c-4 42 -20 91 -57 170 -28 61 -50 121 -48 132 2 14
15 26 38 34 45 16 123 17 137 3 9 -9 20 -9 43 1 37 15 73 56 105 120 13 26 50
71 82 100 32 29 67 71 78 93 16 33 34 49 90 79 39 21 73 38 76 38 4 0 10 -11
13 -25 10 -38 -22 -100 -88 -173 -31 -34 -56 -67 -56 -71 0 -5 19 -20 43 -34
54 -32 107 -82 107 -100 0 -7 -11 -41 -25 -75 -41 -100 -32 -126 54 -157 55
-19 101 -19 128 0 12 8 42 51 68 95 28 50 58 88 78 100 18 11 34 20 37 20 20
-1 34 -25 41 -71 5 -30 13 -66 19 -80 32 -77 173 -61 315 36 83 57 125 78 211
103 89 27 124 59 124 114 0 32 -8 47 -44 86 -61 65 -145 113 -225 129 -36 7
-99 30 -139 50 l-72 37 -93 -91 c-140 -137 -174 -154 -164 -82 3 23 3 48 0 55
-8 23 -60 16 -123 -16 -33 -16 -68 -30 -78 -30 -17 0 -81 56 -71 63 2 1 16 9
30 16 30 15 99 115 99 142 0 12 -7 19 -18 19 -19 0 -42 18 -42 32 0 4 13 8 28
8 20 0 32 8 45 30 11 18 30 33 50 38 19 5 33 16 36 27 8 43 -73 59 -149 29
-23 -9 -44 -14 -47 -10 -7 7 73 103 141 168 60 57 99 74 121 52 19 -19 19 -18
-4 -155 -18 -106 -26 -176 -22 -206 0 -8 15 -13 36 -13 60 0 85 45 85 155 0
75 16 147 46 211 24 50 26 65 21 129 -3 43 -15 94 -29 126 -30 69 -30 155 0
222 20 46 43 59 59 35 4 -7 10 -44 13 -83 5 -64 7 -71 33 -83 19 -9 36 -11 55
-4 40 13 41 52 3 109 -29 44 -31 52 -31 144 0 54 -4 100 -8 103 -5 3 -22 -22
-37 -54 -16 -33 -32 -60 -36 -60 -10 0 -15 30 -39 219 -12 90 -28 196 -37 235
-22 101 -22 110 5 114 31 5 78 -45 92 -96 13 -49 39 -70 101 -77 34 -5 51 -1
78 15 36 23 36 19 7 125 -16 58 -9 77 33 95 30 12 46 34 35 51 -8 14 39 89 85
133 l40 39 6 -29 c25 -110 74 -191 109 -178 21 8 20 23 -5 86 -22 55 -23 138
-1 160 23 23 112 -76 112 -125 0 -16 35 -28 91 -29 66 -2 111 99 89 200 -10
49 -9 66 4 110 10 34 13 70 9 104 -6 47 -5 51 12 44 12 -4 24 0 37 14 22 24
82 27 132 6z m344 -6 c39 -24 41 -40 7 -40 -35 0 -85 27 -85 45 0 21 39 19 78
-5z m-2265 -40 c12 0 28 -9 35 -20 7 -11 20 -20 30 -20 31 0 43 -16 56 -74
l14 -57 -24 22 -24 22 0 -21 c0 -32 -14 -27 -50 16 -41 49 -80 130 -79 161 l1
26 10 -27 c6 -19 17 -28 31 -28z m4660 10 c31 -11 64 -20 74 -20 45 0 153
-114 153 -162 0 -12 7 -18 21 -18 12 0 38 -14 57 -32 20 -17 68 -46 108 -64
91 -41 105 -71 59 -126 -28 -33 -33 -79 -10 -98 9 -7 55 -19 103 -26 67 -10
91 -17 104 -34 35 -43 -3 -108 -77 -132 -24 -8 -45 -23 -54 -40 -14 -24 -14
-28 4 -48 11 -12 50 -37 87 -56 60 -30 68 -38 79 -74 16 -52 -1 -155 -30 -184
-19 -19 -20 -19 -47 -1 -16 10 -50 40 -77 67 -26 26 -50 48 -52 48 -2 0 -6
-19 -10 -42 -11 -66 -34 -116 -67 -143 -64 -54 -104 -19 -115 99 -5 55 -3 65
15 82 11 10 26 40 32 66 7 26 27 65 46 87 19 21 34 44 34 49 0 5 -21 13 -47
16 -80 11 -150 35 -157 52 -10 27 3 53 35 69 16 9 29 24 29 34 0 32 -35 51
-118 65 -85 13 -122 34 -122 68 0 17 27 45 135 141 22 19 37 39 33 43 -11 10
-114 -43 -152 -80 -40 -37 -58 -95 -54 -169 3 -48 5 -52 31 -55 33 -4 33 -7 2
-52 -18 -25 -30 -64 -39 -123 -16 -99 -42 -149 -87 -168 -41 -16 -60 -4 -76
47 -17 57 -16 210 2 269 9 27 13 62 9 78 -4 21 2 39 25 75 16 26 43 76 59 112
32 72 53 94 95 104 29 7 77 47 77 65 0 19 -32 41 -62 41 -40 0 -84 33 -119 88
-38 61 -38 95 1 101 3 1 31 -8 63 -19z m-7294 -47 c27 -22 43 -116 39 -228
l-3 -79 -80 -23 c-44 -13 -89 -20 -100 -17 -11 4 -42 23 -70 44 -27 21 -78 55
-113 75 -35 20 -72 51 -83 68 -23 39 -25 109 -3 131 26 27 54 18 104 -34 29
-30 57 -50 70 -50 12 0 46 23 78 54 86 81 119 93 161 59z m2581 -42 c-1 -12
-5 -11 -20 8 -11 13 -20 31 -20 40 1 12 5 11 20 -8 11 -13 20 -31 20 -40z
m1053 0 c82 -65 107 -100 131 -180 24 -81 21 -144 -7 -177 -28 -32 -60 -27
-55 8 2 13 -5 30 -15 38 -13 11 -20 35 -24 80 -3 36 -11 76 -18 89 -6 13 -43
44 -80 70 -116 78 -134 131 -44 131 31 0 51 -10 112 -59z m343 22 c-11 -11
-19 6 -11 24 8 17 8 17 12 0 3 -10 2 -21 -1 -24z m4100 5 c15 -7 24 -21 26
-42 4 -44 45 -58 83 -28 38 30 116 30 175 0 65 -34 70 -49 34 -95 -47 -59 -93
-85 -131 -78 -28 5 -33 3 -33 -13 0 -28 18 -32 142 -32 l111 0 -7 -32 c-9 -48
-101 -227 -136 -268 l-31 -35 7 92 c6 80 5 93 -9 99 -10 4 -29 -4 -48 -20 -37
-31 -41 -32 -64 -6 -16 17 -17 31 -11 105 5 68 3 85 -7 85 -22 0 -45 -32 -59
-83 -15 -56 -40 -87 -71 -87 -40 0 -47 18 -47 121 0 54 -4 100 -10 104 -5 3
-31 -5 -58 -19 -27 -14 -52 -23 -54 -20 -3 2 -3 26 0 53 4 47 3 50 -27 65 -17
9 -31 24 -31 33 0 23 39 82 63 95 53 28 138 31 193 6z m-5231 3 c8 -14 -13
-24 -33 -16 -14 5 -14 7 -2 15 19 12 27 12 35 1z m-755 -12 c0 -39 -44 -157
-66 -176 -45 -41 -108 -24 -139 37 -8 16 -12 36 -9 44 6 14 66 57 129 89 35
19 85 22 85 6z m3110 -15 c0 -16 -16 -19 -25 -4 -8 13 4 32 16 25 5 -4 9 -13
9 -21z m1955 -35 c32 -36 36 -46 32 -76 -11 -63 -130 -198 -204 -229 -18 -8
-54 -14 -81 -14 -65 0 -96 -24 -111 -87 -14 -54 -36 -83 -62 -83 -42 0 -48 52
-22 211 9 58 14 113 10 122 -3 9 -22 23 -42 31 -27 12 -35 21 -35 41 0 34 26
43 180 60 69 8 161 25 205 38 44 14 83 25 86 26 4 0 23 -18 44 -40z m1389 -31
c-3 -16 -11 -27 -17 -25 -17 5 -20 52 -6 79 l12 22 9 -24 c5 -13 6 -37 2 -52z
m-7664 32 c0 -5 -9 -10 -20 -10 -11 0 -20 5 -20 10 0 6 9 10 20 10 11 0 20 -4
20 -10z m2966 -27 c-6 -14 -9 -15 -16 -4 -11 19 -1 46 13 32 5 -5 7 -18 3 -28z
m2104 23 c0 -14 -37 -33 -46 -23 -2 2 -2 12 2 21 8 20 44 21 44 2z m-4929
-127 c82 -35 100 -103 44 -163 -36 -39 -61 -33 -123 29 -51 51 -54 57 -49 91
11 69 42 80 128 43z m1219 1 c42 -42 16 -73 -57 -68 -40 3 -48 6 -51 24 -4 25
39 64 69 64 11 0 28 -9 39 -20z m4310 -66 c0 -24 -5 -46 -10 -49 -21 -13 -42
99 -23 119 14 13 33 -28 33 -70z m-3940 27 c0 -22 -84 -71 -98 -57 -8 9 16 31
53 50 35 18 45 20 45 7z m72 -33 c-10 -22 -11 -21 -11 12 -1 26 2 31 11 22 8
-8 8 -17 0 -34z m2138 28 c0 -8 -4 -18 -10 -21 -5 -3 -10 3 -10 14 0 12 5 21
10 21 6 0 10 -6 10 -14z m-4426 -12 c21 -20 30 -58 22 -89 -14 -54 -112 -80
-155 -41 -32 29 -26 63 18 107 42 43 87 52 115 23z m-798 -52 c-23 -23 -33 -6
-10 19 12 13 20 16 22 9 3 -7 -3 -19 -12 -28z m3935 28 c28 -15 24 -55 -8 -80
-38 -30 -67 -23 -71 16 -2 25 3 37 24 53 31 24 30 24 55 11z m-2887 -15 c107
-70 1 -259 -112 -201 -70 36 -63 83 23 166 30 27 56 50 60 50 3 0 16 -7 29
-15z m1452 -41 c7 -35 9 -37 60 -34 41 2 47 -15 28 -87 -21 -80 -74 -173 -114
-201 -45 -30 -65 -25 -65 16 0 38 -17 52 -66 52 -33 0 -37 3 -43 31 -9 47 -7
134 4 163 11 31 58 56 105 56 27 0 35 4 35 18 0 10 5 23 12 30 17 17 36 -3 44
-44z m-491 11 c0 -13 -8 -21 -24 -23 -33 -5 -46 11 -25 32 21 22 49 17 49 -9z
m-1853 -72 c9 -8 19 -30 22 -48 10 -50 -22 -105 -94 -160 -33 -25 -60 -50 -60
-54 0 -4 23 -27 50 -50 28 -23 57 -55 65 -70 13 -25 12 -32 -6 -69 -25 -49
-96 -132 -114 -132 -26 0 -38 33 -45 117 -9 116 4 393 20 424 33 61 115 83
162 42z m5225 5 c30 -28 29 -38 -6 -38 -32 0 -56 22 -47 45 8 21 26 19 53 -7z
m-2529 -63 c25 -11 28 -21 8 -28 -19 -8 -60 16 -64 37 -2 9 -1 30 3 44 l7 27
12 -35 c7 -19 22 -39 34 -45z m227 59 c35 -23 65 -76 65 -116 0 -45 -39 -158
-56 -165 -8 -3 -31 10 -52 28 -20 19 -48 41 -60 49 -47 31 -48 165 -1 203 27
21 72 22 104 1z m2934 -40 c1 -5 -5 -18 -12 -28 -11 -15 -17 -17 -35 -7 -29
15 -28 29 5 64 l28 28 6 -23 c4 -13 7 -28 8 -34z m-5605 20 c9 -3 21 -24 26
-46 17 -60 -4 -144 -45 -185 -37 -37 -63 -41 -95 -15 -22 17 -22 22 -12 64 18
69 49 136 76 163 28 28 28 28 50 19z m6596 -19 c0 -8 -4 -17 -10 -20 -6 -4
-10 5 -10 20 0 15 4 24 10 20 6 -3 10 -12 10 -20z m510 15 c0 -5 -9 -10 -20
-10 -11 0 -20 5 -20 10 0 6 9 10 20 10 11 0 20 -4 20 -10z m-2240 -40 c0 -11
-4 -20 -10 -20 -5 0 -10 9 -10 20 0 11 5 20 10 20 6 0 10 -9 10 -20z m220 0
c6 -11 16 -83 22 -159 14 -159 4 -221 -34 -221 -26 0 -110 61 -127 94 -29 54
15 214 76 279 32 32 48 34 63 7z m752 -12 c-6 -6 -15 -9 -18 -5 -4 3 -4 14 0
23 5 13 9 15 18 6 9 -9 9 -15 0 -24z m-2953 -23 c29 -34 49 -80 39 -91 -3 -2
-17 0 -32 5 -21 9 -26 17 -26 46 0 24 -6 39 -20 47 -23 15 -26 28 -6 28 8 0
28 -16 45 -35z m634 19 c8 -8 -3 -34 -14 -34 -5 0 -9 9 -9 20 0 19 11 26 23
14z m1407 -8 c0 -8 -4 -17 -9 -21 -12 -7 -24 12 -16 25 9 15 25 12 25 -4z
m320 -6 c0 -11 -4 -20 -10 -20 -5 0 -10 9 -10 20 0 11 5 20 10 20 6 0 10 -9
10 -20z m-2886 -17 c11 -26 -13 -42 -29 -19 -8 10 -12 23 -9 27 9 15 31 10 38
-8z m892 2 c7 -17 -30 -80 -50 -88 -30 -12 -26 52 6 90 14 17 37 16 44 -2z
m214 5 c0 -15 -46 -34 -65 -26 -14 5 -15 9 -5 21 14 17 70 21 70 5z m-440
-110 c0 -86 -35 -117 -87 -77 -10 7 -9 15 2 38 15 28 73 99 81 99 2 0 4 -27 4
-60z m-576 18 c8 -13 6 -25 -8 -49 -16 -27 -17 -36 -6 -70 9 -26 11 -64 6
-121 -18 -222 -18 -246 -7 -281 10 -28 20 -38 48 -48 l35 -11 -6 -55 c-3 -30
-9 -95 -12 -146 -8 -138 -12 -157 -34 -157 -12 0 -25 -15 -39 -42 -24 -50 -68
-277 -58 -301 11 -29 52 -20 86 18 43 50 70 147 82 300 18 230 19 236 44 261
15 14 36 24 53 24 53 0 56 15 27 156 -14 70 -31 134 -36 140 -6 7 -23 14 -37
16 -24 3 -27 7 -30 50 -2 32 3 59 18 88 29 57 47 61 84 19 90 -101 212 -262
224 -296 33 -95 24 -209 -24 -326 -15 -35 -26 -82 -27 -121 -3 -50 -10 -74
-35 -117 -68 -113 -81 -152 -92 -256 -13 -127 -32 -199 -74 -289 -50 -106
-118 -174 -174 -174 -11 0 -32 -10 -48 -22 -22 -18 -43 -23 -89 -25 -33 -1
-66 -2 -73 -2 -26 -2 -23 -32 7 -66 17 -20 34 -47 37 -60 14 -57 -26 -119 -74
-113 l-27 3 -5 260 -5 260 -23 3 c-18 3 -26 -4 -38 -33 l-15 -37 -63 4 c-84 5
-200 61 -250 120 -43 49 -46 90 -17 168 38 100 151 200 227 200 36 0 44 -16
44 -86 0 -63 18 -146 37 -166 24 -27 58 -22 88 14 33 39 31 50 -43 193 -50 95
-61 110 -82 110 -32 0 -49 49 -52 142 -2 75 15 98 44 62 l18 -21 10 27 c5 14
10 31 10 36 0 24 43 134 63 161 18 25 22 43 22 107 0 73 2 80 42 141 23 36 45
77 48 93 4 15 16 32 27 38 24 13 88 144 88 181 0 17 7 31 21 38 16 9 19 18 15
36 -4 14 -4 29 0 35 8 14 35 7 48 -13z m3094 -1 c4 -20 -25 -34 -40 -19 -15
15 -1 44 19 40 10 -2 19 -11 21 -21z m-5078 -36 c29 -22 58 -37 66 -34 18 7
74 -83 74 -118 0 -15 -12 -41 -26 -58 -31 -37 -73 -41 -121 -12 -25 16 -33 30
-42 71 -6 28 -22 71 -36 94 -57 98 -11 129 85 57z m-223 -64 c78 -79 82 -102
23 -159 -27 -25 -50 -38 -68 -38 -36 0 -46 8 -70 55 -11 22 -32 55 -46 74 -34
46 -33 63 9 100 54 47 78 42 152 -32z m4437 3 c15 -47 17 -66 9 -130 -6 -41
-9 -76 -9 -77 1 -1 25 17 54 40 62 50 92 92 92 130 l0 28 30 -34 c57 -65 61
-105 33 -360 -12 -115 -14 -160 -6 -168 27 -27 52 23 83 161 22 103 31 120 67
120 24 0 25 -2 20 -42 -13 -96 -27 -393 -36 -733 l-10 -360 -31 -88 c-37 -102
-70 -147 -107 -147 -37 0 -133 54 -212 121 -50 43 -77 74 -98 116 l-28 58 -5
296 -5 295 -42 48 c-115 131 -119 373 -9 610 36 79 75 130 121 158 48 30 67
21 89 -42z m1060 8 c7 -12 6 -47 -2 -115 -7 -54 -12 -115 -12 -135 0 -28 -5
-40 -22 -49 -18 -10 -24 -8 -40 11 -25 30 -23 104 3 199 32 114 46 131 73 89z
m-4750 -95 c10 -21 16 -57 16 -101 0 -50 4 -73 15 -82 33 -28 0 -80 -51 -80
-34 0 -41 18 -48 130 -3 58 -9 136 -13 174 l-6 70 35 -40 c19 -21 43 -53 52
-71z m7134 73 c61 -32 42 -86 -31 -86 -66 0 -129 53 -113 96 5 14 16 16 60 11
30 -3 67 -12 84 -21z m412 -11 c0 -14 -4 -25 -10 -25 -5 0 -10 11 -10 25 0 14
5 25 10 25 6 0 10 -11 10 -25z m-7370 -10 c25 -30 -32 -193 -64 -182 -28 9
-45 121 -26 171 8 21 16 26 44 26 18 0 39 -7 46 -15z m7200 -4 c0 -10 -9 -29
-19 -43 -23 -29 -107 -76 -117 -65 -11 11 27 86 54 108 33 25 82 26 82 0z
m-2958 -51 c29 -56 24 -175 -12 -313 -16 -64 -30 -125 -30 -137 0 -11 20 -69
44 -128 60 -146 71 -212 57 -355 -15 -154 -14 -276 3 -324 21 -60 35 -163 42
-325 l7 -148 -63 0 c-89 0 -139 30 -177 107 -25 52 -28 71 -34 198 -4 93 -11
155 -22 184 -23 60 -21 78 13 136 35 59 37 83 11 133 -39 77 -44 116 -26 222
15 91 15 100 0 136 -9 22 -20 79 -25 128 -6 80 -10 92 -34 111 -14 11 -26 28
-26 36 0 16 66 178 87 214 10 17 15 18 33 7 17 -10 25 -11 36 -1 21 17 44 64
44 88 0 11 5 32 10 46 14 36 40 29 62 -15z m-3244 8 c18 -18 14 -46 -8 -58
-17 -9 -22 -7 -29 12 -9 23 2 58 17 58 5 0 13 -5 20 -12z m-778 -38 c0 -11 -4
-20 -10 -20 -5 0 -10 9 -10 20 0 11 5 20 10 20 6 0 10 -9 10 -20z m7151 -15
c4 -16 7 -70 7 -120 l1 -90 -54 59 c-29 33 -61 77 -71 97 -16 36 -16 40 0 64
15 23 23 26 64 23 43 -3 47 -5 53 -33z m-6447 6 c3 -4 -3 -16 -14 -26 -26 -23
-52 -6 -30 20 14 17 36 20 44 6z m3502 -39 c-10 -30 -46 -72 -62 -72 -22 0
-17 13 22 59 37 43 51 47 40 13z m-5703 -22 c60 -38 80 -38 128 1 21 17 43 28
49 24 15 -9 12 -63 -6 -102 -26 -54 -52 -66 -140 -61 -69 3 -79 6 -100 31 -13
16 -24 37 -24 48 0 26 27 89 38 89 4 0 29 -13 55 -30z m832 4 c55 -84 59 -170
14 -309 -29 -91 -31 -106 -24 -175 4 -41 8 -104 9 -140 l1 -65 -51 0 c-31 1
-61 7 -77 18 -24 16 -27 24 -27 75 0 71 21 218 54 385 14 71 26 141 26 156 0
27 33 81 50 81 4 0 15 -12 25 -26z m7560 -36 c80 -70 89 -123 31 -170 -28 -23
-48 -22 -81 4 -55 43 -81 141 -49 186 22 32 45 27 99 -20z m-6205 -1 c60 -20
50 -64 -46 -203 -55 -81 -61 -104 -43 -174 8 -30 13 -62 11 -72 -7 -35 -122
-55 -170 -29 -52 28 4 160 72 173 32 5 29 24 -8 66 -48 53 -66 100 -66 171 0
47 4 62 18 70 24 14 189 13 232 -2z m2998 -16 c3 -19 0 -22 -13 -17 -9 3 -19
6 -21 6 -2 0 -4 9 -4 21 0 29 34 21 38 -10z m-2095 -58 c-4 -10 -9 -11 -16 -4
-5 5 -7 18 -3 28 6 14 9 15 16 4 4 -8 6 -21 3 -28z m4337 -24 c42 -44 47 -69
20 -91 -30 -25 -56 -23 -85 7 -29 28 -32 61 -9 93 21 30 41 28 74 -9z m-1500
-13 c0 -8 -4 -17 -9 -21 -12 -7 -24 12 -16 25 9 15 25 12 25 -4z m1359 -16
c-6 -16 -15 -30 -20 -30 -13 0 -11 34 3 48 21 21 27 13 17 -18z m-1711 -137
c-27 -28 -34 -31 -37 -17 -4 21 45 68 61 58 5 -4 -5 -21 -24 -41z m1706 11
c21 -8 20 -42 -4 -233 -24 -179 -48 -270 -90 -338 -20 -32 -34 -75 -44 -131
-11 -60 -23 -95 -46 -130 -36 -53 -36 -39 -6 -316 18 -161 13 -216 -20 -247
-29 -27 -29 -36 -4 -118 26 -83 22 -95 -31 -88 -49 6 -69 22 -69 53 0 14 -6
24 -14 24 -33 0 -30 88 6 147 18 31 18 32 -3 72 -21 40 -21 46 -11 220 12 188
21 228 67 282 32 39 43 82 54 220 11 123 26 175 90 310 40 85 71 183 71 225 0
13 7 30 16 38 18 18 17 18 38 10z m942 -55 c37 -41 -12 -221 -74 -270 -31 -24
-82 -26 -82 -3 0 37 77 278 95 295 10 11 42 -1 61 -22z m-8489 -37 c45 -29 44
-232 -3 -359 -19 -53 -41 -55 -51 -5 -10 47 -11 331 -1 355 8 18 34 22 55 9z
m5519 -38 c9 -34 -10 -54 -32 -32 -13 12 -14 20 -5 37 16 28 29 27 37 -5z
m-56 -164 c0 -11 -4 -20 -10 -20 -5 0 -10 9 -10 20 0 11 5 20 10 20 6 0 10 -9
10 -20z m-4189 -92 c8 -15 7 -24 -7 -39 -26 -29 -34 -23 -34 26 0 36 3 43 15
39 9 -4 20 -15 26 -26z m1043 -11 c12 -19 3 -32 -19 -24 -17 7 -21 51 -3 45 6
-2 16 -12 22 -21z m-94 -131 c0 -22 -25 -54 -35 -44 -8 7 16 68 26 68 5 0 9
-11 9 -24z m-1055 4 c-3 -5 -17 -10 -30 -10 -13 0 -27 5 -30 10 -4 6 8 10 30
10 22 0 34 -4 30 -10z m6424 -117 c2 -116 -24 -153 -68 -97 -30 38 -26 77 17
156 35 67 37 69 43 41 4 -15 7 -60 8 -100z m719 55 c19 -19 15 -66 -8 -78 -22
-12 -49 -2 -87 33 -26 23 -29 43 -10 50 24 10 93 7 105 -5z m-4872 -283 c-3
-9 -14 -15 -23 -13 -20 4 -28 30 -18 55 5 15 8 14 27 -4 13 -13 18 -28 14 -38z
m2534 -85 c0 -5 -9 -10 -20 -10 -11 0 -20 5 -20 10 0 6 9 10 20 10 11 0 20 -4
20 -10z m-5967 -48 c54 -59 41 -359 -16 -370 -29 -6 -40 69 -34 225 7 169 13
187 50 145z m2294 -79 c23 -16 58 -41 79 -58 23 -19 49 -30 68 -30 45 0 47
-41 7 -102 -32 -49 -39 -89 -20 -126 7 -12 37 -51 69 -87 98 -112 110 -156 60
-214 -36 -40 -119 -74 -132 -54 -4 7 -8 22 -9 33 0 11 -4 60 -8 108 -7 74 -12
92 -33 115 -33 35 -44 58 -52 110 -3 24 -15 55 -25 70 -13 18 -21 52 -24 100
-5 58 -11 79 -31 103 -25 29 -26 59 -2 59 7 0 31 -12 53 -27z m-2119 5 c12
-16 42 -114 42 -140 0 -15 -3 -16 -19 -6 -27 17 -51 72 -51 118 0 41 9 50 28
28z m3818 -94 c15 -81 -13 -155 -71 -183 -21 -10 -33 -11 -52 -2 -23 11 -25
15 -18 54 4 23 10 62 13 87 7 42 9 45 34 42 19 -2 30 4 38 18 18 34 48 25 56
-16z m1974 -79 c0 -14 -4 -25 -10 -25 -5 0 -10 11 -10 25 0 14 5 25 10 25 6 0
10 -11 10 -25z m-1834 -81 c-5 -13 -10 -14 -18 -6 -6 6 -8 18 -4 28 5 13 10
14 18 6 6 -6 8 -18 4 -28z m1914 -9 c13 -14 21 -28 18 -31 -9 -9 -46 14 -58
36 -16 30 11 26 40 -5z m-490 5 c0 -5 -6 -10 -14 -10 -8 0 -18 5 -21 10 -3 6
3 10 14 10 12 0 21 -4 21 -10z m600 -80 c0 -5 -9 -10 -20 -10 -11 0 -20 5 -20
10 0 6 9 10 20 10 11 0 20 -4 20 -10z m-6500 -2170 l0 -650 -605 0 -605 0 0
650 0 650 605 0 605 0 0 -650z m5950 640 c569 -5 1051 -13 1070 -18 21 -5 34
-14 33 -23 -5 -50 -48 -191 -69 -227 -31 -53 -97 -102 -137 -102 -46 0 -92
-53 -107 -123 -13 -66 -7 -124 21 -183 23 -48 52 -64 129 -70 97 -9 120 -14
120 -30 0 -21 -50 -40 -145 -54 -109 -17 -135 -32 -135 -73 0 -63 87 -137 198
-166 23 -7 71 -34 108 -62 55 -42 119 -79 138 -79 2 0 11 7 20 15 12 12 13 22
4 48 -6 17 -15 37 -19 42 -16 21 -30 110 -38 244 -5 75 -15 156 -22 179 -16
54 -59 92 -105 92 -19 0 -34 4 -34 9 0 14 60 58 104 76 92 39 119 -8 141 -246
20 -204 26 -229 71 -269 83 -72 93 -35 93 346 l1 302 -71 18 c-78 20 -126 45
-136 70 -11 30 10 66 47 78 51 16 59 49 32 134 -12 38 -22 71 -22 75 0 4 453
6 1008 5 l1007 -3 3 -647 2 -648 -4495 0 -4495 0 0 650 0 650 2323 -1 c1277 0
2788 -4 3357 -9z m4840 -640 l0 -650 -645 0 -645 0 0 650 0 650 645 0 645 0 0
-650z m-3940 -246 c0 -8 -4 -14 -10 -14 -5 0 -10 9 -10 21 0 11 5 17 10 14 6
-3 10 -13 10 -21z"/>
<path d="M10083 14010 c-62 -37 -86 -109 -49 -149 23 -25 35 -190 36 -475 l0
-219 188 6 c258 7 324 31 353 127 10 32 9 44 -7 77 -27 54 -51 54 -127 0 -182
-129 -186 -124 -196 273 -8 305 -11 320 -74 359 -43 26 -83 27 -124 1z"/>
<path d="M2482 14001 c-70 -18 -180 -120 -203 -188 -14 -44 5 -134 37 -172 13
-16 44 -41 68 -55 24 -14 46 -32 49 -40 3 -8 34 -25 68 -37 75 -28 123 -71
139 -126 11 -35 11 -45 0 -58 -31 -38 -197 16 -246 80 -14 18 -41 41 -60 50
-64 30 -101 -4 -89 -84 9 -59 26 -91 69 -129 61 -53 256 -104 339 -88 43 8
119 73 153 132 35 60 30 124 -18 226 -46 97 -81 135 -165 182 -38 20 -83 48
-98 61 -26 20 -28 25 -15 40 22 27 92 15 140 -24 21 -17 51 -36 65 -43 24 -11
29 -10 46 11 38 47 19 150 -37 203 -54 51 -166 78 -242 59z"/>
<path d="M4844 14000 c-70 -10 -135 -41 -167 -79 -34 -40 -34 -71 -2 -101 21
-19 39 -24 105 -28 l80 -5 0 -308 0 -309 105 0 105 0 0 310 0 310 75 0 c43 0
90 6 110 14 31 13 35 19 35 51 0 76 -81 123 -250 145 -85 11 -123 11 -196 0z"/>
<path d="M5510 13590 l0 -420 105 0 105 0 0 420 0 420 -105 0 -105 0 0 -420z"/>
<path d="M9368 13971 c-61 -39 -86 -95 -148 -330 -28 -105 -64 -228 -80 -275
-48 -136 -39 -166 49 -166 49 0 71 20 71 66 0 72 74 105 186 85 70 -13 103
-35 126 -83 43 -89 140 -118 199 -59 34 35 38 72 9 101 -25 25 -40 62 -40 97
0 14 -16 60 -35 102 -19 43 -42 108 -50 146 -28 121 -121 290 -181 330 -33 22
-54 19 -106 -14z m122 -360 c22 -43 5 -111 -28 -111 -27 0 -42 20 -42 58 0 43
16 72 40 72 11 0 24 -9 30 -19z"/>
<path d="M4048 13971 c-33 -27 -103 -170 -162 -333 -89 -248 -112 -359 -86
-409 13 -24 54 -44 102 -52 48 -7 68 11 68 62 0 78 75 121 210 121 83 0 104
-14 140 -95 39 -87 85 -114 143 -84 30 16 37 28 37 70 0 111 -212 653 -279
714 -16 13 -41 20 -84 23 -52 3 -66 0 -89 -17z m154 -333 c13 -22 9 -86 -8
-102 -18 -18 -66 -21 -95 -6 -15 8 -19 22 -19 61 0 42 3 51 23 59 28 12 88 5
99 -12z"/>
<path d="M3164 13971 c-28 -5 -59 -13 -70 -19 -22 -12 -44 -71 -44 -119 0 -54
15 -63 124 -70 l99 -6 -7 -242 c-4 -133 -5 -263 -1 -288 l7 -47 54 0 c29 0 76
5 104 11 l50 11 0 277 0 278 81 6 c45 4 88 12 95 18 19 15 18 102 -1 138 -8
16 -29 34 -47 41 -39 15 -366 23 -444 11z"/>
<path d="M6203 13969 c-72 -17 -152 -129 -153 -214 0 -54 48 -152 93 -192 22
-19 63 -40 104 -52 84 -25 157 -70 183 -113 24 -40 25 -52 4 -72 -18 -19 -95
-21 -127 -5 -12 7 -52 40 -89 74 -75 71 -117 88 -149 59 -44 -40 -8 -177 64
-241 44 -38 102 -48 248 -41 114 6 137 17 208 103 61 74 85 128 70 157 -36 70
-178 198 -219 198 -42 0 -120 97 -120 149 0 24 28 41 65 41 42 0 65 -17 65
-49 0 -36 32 -65 62 -58 30 8 75 55 83 87 5 20 -3 40 -34 85 -22 33 -50 66
-63 74 -28 18 -233 25 -295 10z"/>
<path d="M7040 13969 c-61 -10 -159 -56 -173 -80 -15 -25 1 -87 27 -104 12 -8
57 -18 99 -21 l77 -7 0 -293 0 -294 110 0 110 0 0 294 0 293 88 7 c94 7 130
23 146 68 22 61 -10 92 -130 123 -73 19 -280 27 -354 14z"/>
<path d="M7770 13590 l0 -390 95 0 95 0 0 390 0 390 -95 0 -95 0 0 -390z"/>
<path d="M8321 13918 c-66 -93 -99 -165 -113 -246 -31 -181 60 -378 205 -443
47 -22 66 -24 192 -24 131 0 144 2 197 27 61 28 83 56 74 94 -11 43 -119 46
-159 4 -17 -19 -27 -22 -72 -17 -69 7 -130 26 -154 48 -10 10 -24 41 -30 69
-14 67 -14 279 0 337 10 38 18 48 48 60 20 9 66 15 106 15 56 0 80 -5 119 -26
27 -14 57 -26 66 -26 34 0 80 22 80 38 0 27 -58 120 -83 134 -15 9 -83 14
-227 16 l-205 3 -44 -63z"/>
<path d="M920 11860 l0 -421 108 3 107 3 3 418 2 417 -110 0 -110 0 0 -420z"/>
<path d="M700 10460 l0 -390 85 0 85 0 0 175 c0 284 16 290 203 72 57 -67 127
-143 155 -169 50 -47 52 -48 117 -48 l65 0 0 375 0 375 -95 0 -95 0 -2 -206
-3 -205 -90 88 c-49 48 -123 132 -163 186 -89 119 -115 137 -199 137 l-63 0 0
-390z"/>
<path d="M730 8960 l0 -432 208 4 c211 5 248 11 287 48 11 10 38 25 60 32 78
26 116 122 116 293 -1 122 -17 203 -56 270 -37 62 -136 152 -202 183 -55 25
-67 27 -235 30 l-178 4 0 -432z m360 278 c64 -33 78 -67 91 -229 17 -209 0
-308 -57 -329 -14 -6 -59 -10 -100 -10 l-74 0 0 269 c0 151 4 281 10 295 8 22
16 26 48 26 21 0 58 -10 82 -22z"/>
<path d="M920 7505 l0 -406 108 3 107 3 3 403 2 402 -110 0 -110 0 0 -405z"/>
<path d="M992 6415 c-13 -10 -28 -39 -38 -73 -9 -31 -27 -75 -39 -97 -12 -22
-25 -61 -28 -86 -4 -25 -25 -111 -47 -190 -46 -158 -63 -306 -40 -334 17 -20
113 -21 129 -1 7 8 16 44 21 79 5 35 12 71 16 80 7 20 64 37 125 37 54 0 73
-17 114 -100 36 -73 72 -110 106 -110 36 0 75 15 81 32 14 37 -81 353 -166
555 -76 180 -163 257 -234 208z m82 -381 c18 -47 -6 -108 -32 -82 -16 16 -15
71 0 86 16 16 25 15 32 -4z"/>
<path d="M748 4893 c-8 -19 -13 -157 -16 -420 l-4 -393 96 0 96 0 0 178 c0
167 10 252 30 252 12 0 120 -124 228 -262 104 -131 145 -170 176 -166 38 5 45
72 48 467 l3 366 -92 3 -93 3 0 -213 0 -213 -157 156 c-141 140 -285 269 -298
269 -3 0 -11 -12 -17 -27z"/>
<path d="M9745 10578 c-57 -29 -82 -55 -100 -102 -20 -51 -8 -96 25 -96 24 0
86 30 145 70 22 15 47 29 56 33 26 9 56 -19 75 -70 22 -61 29 -69 49 -53 35
29 8 137 -47 186 -61 57 -134 68 -203 32z"/>
<path d="M9533 10321 c7 -78 28 -113 65 -109 29 3 38 23 28 63 -7 28 -50 81
-79 96 -19 11 -20 9 -14 -50z"/>
<path d="M11712 11933 l3 -378 108 -3 107 -3 0 381 0 380 -110 0 -110 0 2
-377z"/>
<path d="M11470 11025 l0 -365 80 0 80 0 1 128 c1 142 9 214 25 219 5 2 77
-58 159 -133 155 -141 257 -217 284 -212 37 7 41 43 41 391 l0 337 -79 0 -79
0 -4 -174 c-1 -96 -6 -177 -10 -181 -4 -4 -19 2 -35 13 -43 31 -187 180 -238
247 -58 75 -93 95 -167 95 l-58 0 0 -365z"/>
<path d="M11707 10456 c-86 -24 -157 -117 -157 -207 0 -74 54 -137 185 -214
99 -59 140 -96 150 -137 6 -24 3 -29 -20 -38 -62 -24 -189 -3 -238 39 -43 37
-63 43 -82 25 -20 -20 -19 -50 4 -100 38 -82 104 -109 251 -101 107 6 194 33
242 76 33 29 47 78 48 162 0 51 -3 59 -37 96 -21 21 -51 56 -66 76 -36 48 -64
61 -166 81 -97 18 -131 36 -131 71 0 29 43 65 80 65 14 0 64 -11 110 -25 87
-26 164 -32 175 -14 21 33 -46 116 -111 137 -60 20 -182 24 -237 8z"/>
<path d="M11692 9519 c-89 -15 -162 -66 -162 -114 0 -30 16 -35 106 -35 l74 0
0 -285 0 -286 123 3 122 3 3 283 2 282 73 0 c87 0 113 14 103 53 -20 81 -244
129 -444 96z"/>
<path d="M11690 8275 l0 -395 105 0 105 0 0 395 0 395 -105 0 -105 0 0 -395z"/>
<path d="M11659 7740 c-98 -17 -159 -68 -159 -132 0 -38 25 -48 114 -48 l76 0
0 -285 0 -285 105 0 105 0 0 285 0 285 69 0 c88 0 121 12 121 43 0 34 -39 87
-80 108 -67 34 -237 48 -351 29z"/>
<path d="M11470 6541 l0 -259 90 -84 c158 -150 256 -182 355 -116 26 17 76 59
111 92 78 76 80 87 89 399 l7 227 -79 0 -80 0 -7 -202 c-9 -278 -32 -363 -107
-400 -28 -14 -42 -16 -71 -8 -45 13 -112 84 -128 136 -7 23 -14 130 -17 257
l-5 217 -79 0 -79 0 0 -259z"/>
<path d="M11670 5801 c-88 -10 -134 -28 -172 -66 -32 -32 -36 -60 -10 -74 11
-6 60 -13 110 -17 l91 -7 3 -251 c3 -230 5 -254 23 -285 23 -40 61 -54 114
-43 53 11 59 41 67 331 l7 248 104 7 c113 7 133 12 133 31 0 19 -81 96 -118
112 -40 17 -248 25 -352 14z"/>
<path d="M11550 4485 l0 -405 270 0 270 0 0 80 0 80 -175 0 -175 0 0 95 0 95
108 0 c133 0 156 10 160 66 4 58 -9 66 -138 72 -71 3 -114 9 -120 18 -6 7 -10
36 -8 65 4 71 19 79 166 79 62 0 122 5 133 10 16 9 19 22 19 80 l0 70 -255 0
-255 0 0 -405z"/>
<path d="M6105 11860 c-9 -14 13 -50 30 -50 8 0 15 9 15 20 0 22 -35 46 -45
30z"/>
<path d="M6294 11757 c-7 -20 3 -37 22 -37 18 0 18 24 -1 40 -12 10 -16 9 -21
-3z"/>
<path d="M6389 11363 c-30 -77 -59 -169 -59 -190 0 -28 14 -30 33 -2 8 11 28
24 43 28 20 5 30 15 32 32 2 13 8 29 14 36 7 8 2 29 -16 68 -13 30 -28 55 -31
55 -3 0 -10 -12 -16 -27z"/>
<path d="M7454 10167 c-9 -24 0 -52 16 -52 21 0 24 39 6 55 -13 10 -17 9 -22
-3z"/>
<path d="M8707 10020 c-14 -11 -34 -20 -46 -20 -11 0 -25 -9 -31 -19 -13 -26
-13 -31 5 -31 21 0 18 -10 -15 -50 -47 -54 -44 -59 49 -74 40 -7 61 7 61 41 0
14 14 38 35 59 70 70 18 154 -58 94z"/>
<path d="M7810 9732 c0 -12 34 -42 48 -42 16 0 15 23 0 38 -14 14 -48 16 -48
4z"/>
<path d="M8767 9476 c-93 -25 -200 -119 -177 -156 13 -22 68 7 97 51 46 70 81
60 128 -34 27 -54 32 -96 14 -114 -29 -29 39 -93 100 -93 25 0 34 6 41 26 11
28 13 201 4 282 l-7 52 -76 -1 c-42 0 -97 -6 -124 -13z"/>
<path d="M7383 8244 c-8 -23 26 -63 79 -93 51 -29 64 -25 54 15 -16 64 -116
122 -133 78z"/>
<path d="M6971 8164 c-18 -20 -28 -24 -52 -19 -25 6 -29 4 -29 -14 0 -26 36
-51 73 -51 44 0 96 29 103 56 14 54 -55 74 -95 28z"/>
<path d="M7140 8101 c0 -84 65 -171 128 -171 33 0 28 10 -28 60 -40 36 -54 55
-63 94 -16 63 -37 73 -37 17z"/>
<path d="M7320 7941 c0 -12 5 -21 10 -21 6 0 10 6 10 14 0 8 -4 18 -10 21 -5
3 -10 -3 -10 -14z"/>
<path d="M7920 7250 c0 -5 6 -10 14 -10 8 0 18 5 21 10 3 6 -3 10 -14 10 -12
0 -21 -4 -21 -10z"/>
<path d="M2080 10556 c0 -8 5 -18 10 -21 6 -3 10 3 10 14 0 12 -4 21 -10 21
-5 0 -10 -6 -10 -14z"/>
<path d="M2718 10224 c-16 -8 -28 -23 -28 -34 0 -20 44 -60 66 -60 28 0 74
-52 80 -92 8 -49 30 -60 56 -28 15 18 18 32 13 59 -8 44 -36 99 -70 140 -30
35 -71 41 -117 15z"/>
<path d="M3870 10352 c0 -5 9 -17 20 -27 22 -20 26 -14 10 16 -11 19 -30 26
-30 11z"/>
<path d="M4167 9713 c-15 -15 -5 -45 28 -82 19 -21 35 -44 35 -50 0 -18 -29
-72 -62 -114 -22 -27 -28 -44 -24 -61 9 -38 79 -119 126 -146 64 -38 106 -77
134 -124 24 -42 81 -88 122 -100 13 -4 30 0 44 12 22 18 23 22 11 51 -8 19
-37 48 -74 74 -116 80 -208 225 -226 353 -13 91 -28 133 -59 167 -26 27 -42
33 -55 20z"/>
<path d="M5897 8364 c-4 -4 -7 -16 -7 -26 0 -14 6 -19 23 -16 14 2 22 10 22
23 0 20 -25 32 -38 19z"/>
<path d="M5970 8106 c0 -24 25 -43 35 -26 7 12 -4 38 -21 44 -10 4 -14 -2 -14
-18z"/>
<path d="M3864 6249 c-8 -14 21 -43 35 -35 19 12 13 46 -8 46 -11 0 -23 -5
-27 -11z"/>
<path d="M6352 6978 c-5 -7 -21 -38 -35 -68 -14 -30 -37 -70 -51 -89 -31 -41
-33 -61 -7 -61 42 0 139 156 129 208 -4 21 -23 26 -36 10z"/>
<path d="M6190 6611 c-49 -49 -39 -101 20 -101 32 0 92 67 88 98 -3 23 -8 27
-41 30 -30 3 -43 -2 -67 -27z"/>
<path d="M6254 6362 c-43 -29 -48 -127 -14 -301 29 -150 25 -215 -18 -276 -18
-25 -32 -51 -32 -58 0 -24 158 -157 186 -157 24 0 43 60 70 218 36 209 32 270
-30 396 -27 56 -65 115 -90 141 -43 46 -52 50 -72 37z"/>
<path d="M2910 5715 c-10 -12 -9 -20 4 -41 20 -29 50 -28 54 2 3 21 -20 54
-37 54 -5 0 -14 -7 -21 -15z"/>
<path d="M10782 5548 c-18 -18 -14 -46 7 -58 25 -13 48 -4 56 21 12 38 -35 65
-63 37z"/>
<path d="M2636 5524 c-19 -19 -20 -26 -4 -42 29 -29 107 0 94 35 -3 8 -6 17
-6 19 0 12 -71 2 -84 -12z"/>
<path d="M6393 5453 c-27 -10 -12 -42 34 -72 26 -17 52 -30 57 -28 6 2 12 18
14 35 5 52 -51 87 -105 65z"/>
<path d="M8518 5259 c-23 -13 -23 -26 2 -39 14 -8 26 -8 40 0 24 13 26 36 4
44 -21 8 -26 7 -46 -5z"/>
<path d="M10713 5260 c-13 -5 -23 -16 -23 -24 0 -21 46 -54 86 -62 41 -7 64 8
64 43 0 39 -74 64 -127 43z"/>
<path d="M8435 5144 c-19 -20 -16 -43 8 -58 34 -22 73 27 47 59 -16 19 -35 19
-55 -1z"/>
<path d="M8830 5135 c-15 -16 -23 -37 -24 -62 -1 -37 0 -38 33 -38 32 0 35 3
48 49 8 26 12 55 9 62 -8 22 -40 17 -66 -11z"/>
<path d="M10566 5145 c-19 -20 -20 -26 -3 -49 26 -36 84 4 61 42 -15 23 -38
26 -58 7z"/>
<path d="M6535 5069 c-10 -15 32 -57 79 -81 42 -22 130 -28 148 -10 14 14 -66
70 -126 87 -59 18 -92 19 -101 4z"/>
<path d="M9870 5062 c-30 -24 -20 -62 16 -62 42 0 94 27 94 48 0 34 -74 43
-110 14z"/>
<path d="M10234 5035 c-9 -22 4 -35 37 -35 33 0 51 26 28 41 -22 14 -59 11
-65 -6z"/>
<path d="M10002 4958 c-17 -17 -15 -55 3 -62 19 -7 57 7 74 28 28 34 -45 66
-77 34z"/>
<path d="M10317 4853 c-16 -15 -5 -33 25 -41 39 -10 57 -35 42 -59 -6 -10 -20
-19 -32 -21 -11 -2 -26 -10 -33 -19 -11 -13 -10 -17 6 -29 26 -19 30 -18 65
16 20 19 41 30 59 30 31 0 57 23 46 40 -4 7 -27 20 -50 30 -24 10 -49 28 -55
39 -10 20 -58 30 -73 14z"/>
<path d="M6630 4814 c0 -27 20 -54 40 -54 24 0 26 18 4 48 -18 25 -44 29 -44
6z"/>
<path d="M8618 4813 c-66 -41 -11 -72 62 -35 19 9 35 24 35 32 0 22 -64 24
-97 3z"/>
<path d="M9944 4716 c-26 -20 -8 -38 40 -39 47 -1 69 19 42 39 -11 8 -29 14
-41 14 -12 0 -30 -6 -41 -14z"/>
<path d="M10758 4719 c-10 -5 -18 -14 -18 -20 0 -15 43 -28 63 -17 21 11 22
34 1 42 -21 8 -26 7 -46 -5z"/>
<path d="M6421 4681 c-25 -25 -28 -76 -6 -85 19 -7 57 7 74 27 7 9 11 28 9 44
-4 37 -47 44 -77 14z"/>
<path d="M5612 4626 c-26 -25 -44 -47 -40 -51 11 -11 118 26 128 45 35 65 -22
68 -88 6z"/>
<path d="M3433 4610 c-48 -10 -83 -26 -83 -39 0 -27 159 -42 215 -21 32 12 30
39 -5 57 -28 14 -64 15 -127 3z"/>
<path d="M9560 4607 c-32 -16 -39 -53 -10 -62 27 -9 88 12 100 34 19 37 -38
54 -90 28z"/>
<path d="M9969 4603 c-27 -16 -59 -71 -59 -98 0 -26 73 -19 100 10 31 33 34
99 5 102 -11 2 -32 -5 -46 -14z"/>
<path d="M2610 4591 c-15 -30 -12 -66 8 -84 26 -24 90 -21 132 4 65 39 59 60
-23 84 -69 21 -104 19 -117 -4z"/>
<path d="M5490 4555 c-17 -21 -3 -37 21 -25 10 6 19 15 19 19 0 16 -28 20 -40
6z"/>
<path d="M10557 4510 c-14 -16 -28 -39 -32 -49 -3 -11 -22 -30 -41 -41 -41
-26 -45 -57 -9 -66 34 -8 75 3 103 29 25 23 57 119 48 143 -9 23 -43 16 -69
-16z"/>
<path d="M2303 4494 c-7 -19 13 -34 47 -34 34 0 54 15 47 34 -4 11 -19 16 -47
16 -28 0 -43 -5 -47 -16z"/>
<path d="M5885 4491 c-47 -22 -110 -85 -101 -100 4 -6 24 -11 45 -11 60 0 171
80 158 115 -8 20 -53 19 -102 -4z"/>
<path d="M6622 4498 c-17 -17 4 -38 38 -38 38 0 60 9 60 25 0 25 -76 35 -98
13z"/>
<path d="M7484 4495 c-8 -21 4 -35 30 -35 31 0 50 22 34 38 -17 17 -58 15 -64
-3z"/>
<path d="M7701 4496 c-26 -31 75 -51 114 -22 18 13 18 14 -3 25 -29 16 -97 14
-111 -3z"/>
<path d="M2033 4464 c-6 -16 11 -34 33 -34 19 0 47 27 40 38 -11 18 -66 15
-73 -4z"/>
<path d="M3110 4456 c-37 -25 -90 -93 -90 -114 0 -25 -92 -111 -145 -136 -39
-18 -56 -33 -61 -50 -13 -53 15 -58 109 -21 87 35 130 74 183 166 25 43 59 88
75 100 23 16 29 28 27 48 -4 37 -50 40 -98 7z"/>
<path d="M6192 4418 c-18 -18 5 -38 43 -38 38 0 61 20 43 38 -7 7 -26 12 -43
12 -17 0 -36 -5 -43 -12z"/>
<path d="M8564 4415 c-8 -21 4 -35 30 -35 31 0 50 22 34 38 -17 17 -58 15 -64
-3z"/>
<path d="M3594 4388 c-9 -14 23 -38 51 -38 28 0 60 24 51 38 -4 7 -27 12 -51
12 -24 0 -47 -5 -51 -12z"/>
<path d="M6434 4389 c-11 -19 -8 -88 6 -104 15 -18 44 -20 58 -2 6 7 14 36 18
65 l7 52 -41 0 c-23 0 -44 -5 -48 -11z"/>
<path d="M8133 4384 c-7 -19 13 -34 48 -34 29 0 55 23 44 40 -10 17 -85 12
-92 -6z"/>
<path d="M9222 4389 c-74 -22 -42 -75 38 -64 105 16 138 68 45 72 -28 1 -65
-3 -83 -8z"/>
<path d="M9697 4340 c-57 -17 -77 -55 -34 -65 31 -8 108 17 121 38 20 32 -25
46 -87 27z"/>
<path d="M7032 4308 c-18 -18 -14 -46 7 -58 25 -13 48 -4 56 21 12 38 -35 65
-63 37z"/>
<path d="M9463 4313 c-21 -8 -15 -30 10 -37 37 -10 72 -7 93 9 16 13 17 16 4
25 -15 10 -85 12 -107 3z"/>
<path d="M10101 4306 c-10 -12 -8 -17 8 -25 41 -22 99 -7 88 23 -8 21 -80 22
-96 2z"/>
<path d="M7335 4286 c-25 -18 -16 -60 14 -64 31 -5 54 23 41 48 -13 24 -35 31
-55 16z"/>
<path d="M7902 4289 c-33 -12 -27 -37 23 -86 53 -54 79 -54 83 -2 5 62 -51
108 -106 88z"/>
<path d="M10462 4291 c-11 -6 -11 -17 -2 -50 6 -23 16 -44 23 -46 7 -2 24 -6
40 -9 15 -4 27 -13 27 -22 0 -19 40 -34 63 -22 26 14 20 33 -15 49 -19 8 -41
29 -53 51 -11 20 -30 42 -43 47 -27 13 -24 13 -40 2z"/>
<path d="M2142 4258 c-8 -8 -9 -15 -1 -25 16 -18 58 -16 66 3 11 28 -41 46
-65 22z"/>
<path d="M6190 4255 c-6 -8 -9 -19 -5 -25 10 -16 65 -12 72 6 11 30 -44 46
-67 19z"/>
<path d="M10014 4198 c-7 -11 21 -38 40 -38 22 0 39 18 33 34 -7 19 -62 22
-73 4z"/>
<path d="M8058 4179 c-35 -20 10 -57 46 -37 20 11 21 34 0 42 -20 8 -26 7 -46
-5z"/>
<path d="M9030 4176 c-20 -25 -8 -61 22 -64 36 -4 53 26 32 56 -18 25 -37 28
-54 8z"/>
<path d="M8703 4154 c-22 -9 -14 -33 12 -40 34 -8 57 2 53 23 -3 18 -40 27
-65 17z"/>
<path d="M7314 4128 c-16 -12 -62 -52 -101 -90 -156 -146 -204 -169 -363 -175
-63 -3 -119 -9 -124 -13 -4 -5 7 -17 25 -27 53 -28 253 -25 331 6 96 38 274
188 303 255 27 62 -14 87 -71 44z"/>
<path d="M8320 4115 c-16 -20 10 -62 48 -76 15 -6 39 -23 54 -40 30 -32 49
-36 68 -14 18 22 8 47 -30 71 -19 12 -46 34 -60 48 -29 29 -61 34 -80 11z"/>
<path d="M5523 4103 c-20 -7 -15 -31 7 -43 21 -11 60 2 60 20 0 19 -42 34 -67
23z"/>
<path d="M6501 4089 c-41 -38 -9 -71 54 -55 32 8 38 33 15 56 -25 25 -41 25
-69 -1z"/>
<path d="M9434 4095 c-19 -15 -19 -15 0 -30 11 -8 23 -15 26 -15 3 0 15 7 26
15 19 15 19 15 0 30 -11 8 -23 15 -26 15 -3 0 -15 -7 -26 -15z"/>
<path d="M2053 4068 c-32 -42 -17 -101 44 -168 47 -52 113 -90 156 -90 53 0
43 28 -36 103 -59 57 -77 80 -82 110 -10 50 -58 76 -82 45z"/>
<path d="M2550 4067 c-17 -8 -25 -21 -25 -37 0 -23 4 -25 42 -23 48 2 103 27
103 47 0 26 -78 34 -120 13z"/>
<path d="M4270 4068 c-78 -21 -75 -68 4 -68 45 0 126 32 126 50 0 13 -43 30
-73 29 -12 0 -38 -5 -57 -11z"/>
<path d="M5036 4069 c-52 -12 -68 -27 -64 -58 4 -34 28 -38 86 -13 26 11 74
23 107 27 33 4 68 9 78 11 24 7 21 31 -5 38 -33 8 -157 5 -202 -5z"/>
<path d="M9898 4073 c-22 -6 -23 -29 -2 -37 9 -3 31 -6 49 -6 42 0 65 9 65 25
0 21 -63 31 -112 18z"/>
<path d="M10431 4071 c-26 -17 -4 -41 37 -41 48 0 74 23 43 39 -24 13 -61 14
-80 2z"/>
<path d="M10670 4035 c-14 -17 -5 -51 16 -59 22 -8 54 11 54 32 0 38 -46 56
-70 27z"/>
<path d="M3310 4010 c-28 -28 -11 -63 28 -58 21 2 28 9 30 30 5 39 -30 56 -58
28z"/>
<path d="M5411 3991 c-23 -15 -5 -41 28 -41 35 0 48 15 31 35 -14 17 -38 19
-59 6z"/>
<path d="M6251 3991 c-27 -17 -4 -41 39 -41 28 0 43 5 47 16 7 19 -13 34 -47
34 -14 0 -31 -4 -39 -9z"/>
<path d="M2981 3961 c-23 -15 5 -41 44 -41 38 0 61 20 43 38 -14 14 -67 16
-87 3z"/>
<path d="M4600 3960 c-13 -9 -12 -12 4 -25 33 -25 116 -18 116 10 0 7 -7 16
-16 19 -24 9 -87 7 -104 -4z"/>
<path d="M7702 3959 c-76 -10 -115 -31 -110 -61 6 -45 106 -41 206 8 52 26 66
47 36 58 -19 7 -48 6 -132 -5z"/>
<path d="M7435 3917 c-66 -38 -87 -107 -32 -107 45 0 167 95 152 119 -11 19
-78 12 -120 -12z"/>
<path d="M3362 3911 c-38 -24 18 -91 79 -94 31 -2 34 0 34 27 0 44 -78 91
-113 67z"/>
<path d="M2718 3879 c-22 -12 -23 -48 -2 -56 20 -8 163 17 171 30 19 30 -124
53 -169 26z"/>
<path d="M8050 3871 c-13 -25 -4 -48 21 -56 38 -12 65 35 37 63 -18 18 -46 14
-58 -7z"/>
<path d="M9023 3844 c-7 -19 13 -34 48 -34 29 0 55 23 44 40 -10 17 -85 12
-92 -6z"/>
<path d="M9866 3845 c-27 -7 -56 -22 -65 -34 -9 -12 -30 -25 -46 -29 -37 -10
-45 -37 -13 -46 45 -12 77 -6 104 19 15 14 39 25 55 25 61 0 103 36 78 66 -14
17 -48 17 -113 -1z"/>
<path d="M2508 3833 c-26 -7 -22 -32 7 -43 27 -10 75 2 75 19 0 22 -43 35 -82
24z"/>
<path d="M10166 3831 c-30 -4 -54 -14 -63 -26 -23 -32 7 -45 82 -38 57 5 64 4
74 -16 22 -39 72 -19 92 38 6 18 8 35 5 39 -10 9 -133 12 -190 3z"/>
<path d="M3107 3820 c-16 -5 -35 -14 -44 -21 -24 -20 11 -39 73 -39 55 0 78
15 72 47 -4 21 -55 27 -101 13z"/>
<path d="M3878 3793 c-40 -16 -51 -46 -22 -57 69 -26 155 31 95 64 -25 13 -28
12 -73 -7z"/>
<path d="M9320 3765 c-14 -17 -5 -51 16 -59 22 -8 54 11 54 32 0 38 -46 56
-70 27z"/>
<path d="M10642 3767 c-10 -11 -9 -17 2 -26 23 -19 61 -10 61 14 0 25 -46 33
-63 12z"/>
<path d="M6088 3749 c-24 -13 -23 -26 2 -39 28 -15 60 -3 60 21 0 10 -4 19 -9
19 -5 0 -15 2 -23 5 -7 2 -21 0 -30 -6z"/>
<path d="M8541 3721 c-23 -15 -5 -41 28 -41 35 0 48 15 31 35 -14 17 -38 19
-59 6z"/>
<path d="M6907 6450 c-33 -26 -49 -79 -45 -145 l3 -50 40 -6 c22 -3 50 -11 61
-19 12 -7 29 -10 38 -7 37 15 61 140 36 188 -11 19 -46 40 -86 53 -14 4 -30
-1 -47 -14z"/>
<path d="M7681 5413 c-35 -137 -37 -215 -5 -227 35 -14 72 98 59 182 -13 87
-38 107 -54 45z"/>
<path d="M2464 3359 c-98 -18 -182 -83 -204 -157 -19 -65 -26 -258 -22 -584
l4 -318 94 0 94 0 0 285 0 285 55 0 c178 0 211 -136 53 -220 l-62 -33 45 -39
c53 -48 136 -104 165 -112 15 -5 31 1 53 20 29 24 37 26 102 22 64 -3 74 -7
96 -33 20 -23 24 -35 19 -65 -11 -67 52 -110 129 -89 63 18 68 35 76 283 6
223 11 253 50 305 42 56 6 91 -96 91 -77 0 -132 -15 -145 -41 -9 -16 -5 -30
19 -73 17 -29 31 -67 31 -84 0 -44 -51 -99 -98 -108 -79 -16 -105 2 -123 80
-14 65 -4 88 52 116 46 24 57 43 38 66 -25 31 -65 37 -262 43 -183 6 -200 8
-214 26 -17 23 -12 75 12 111 27 41 72 56 188 64 59 4 110 10 114 14 8 8 -63
72 -112 101 -70 42 -107 52 -151 44z"/>
<path d="M4730 3313 c-63 -56 -67 -70 -29 -91 81 -44 139 -119 139 -182 0 -44
-14 -37 -48 23 -51 90 -150 167 -216 167 -30 0 -76 -52 -76 -85 0 -23 17 -35
51 -35 10 0 33 -13 51 -30 26 -23 30 -32 20 -39 -8 -4 -82 -11 -165 -13 -104
-4 -163 -10 -188 -20 -72 -31 -101 -108 -59 -154 18 -18 22 -41 29 -147 9
-137 16 -157 74 -201 51 -39 101 -56 163 -56 39 0 67 -6 88 -20 43 -26 138
-50 199 -50 63 0 103 -20 156 -75 47 -50 75 -57 86 -22 4 12 10 154 12 315 l5
292 172 0 c94 0 188 -5 209 -11 71 -19 29 -56 -51 -43 -83 13 -166 -33 -197
-108 -25 -62 -23 -165 3 -219 31 -62 76 -89 164 -99 92 -11 119 -21 181 -71
28 -22 58 -38 66 -37 31 6 61 78 61 148 0 54 5 74 30 118 17 28 34 52 38 52 4
0 24 -26 46 -58 67 -100 200 -190 294 -199 34 -4 56 -14 78 -35 35 -33 51 -30
89 12 18 20 20 41 26 269 7 314 18 348 100 305 43 -22 89 -98 89 -148 0 -35
-6 -46 -41 -78 -39 -36 -41 -41 -37 -83 9 -72 54 -152 134 -233 40 -41 79 -72
86 -70 23 8 22 90 -1 117 -26 30 -35 75 -21 102 11 19 18 21 70 16 66 -6 202
-65 264 -115 21 -17 55 -34 75 -38 54 -9 87 -23 112 -50 12 -13 30 -24 39 -24
31 0 42 51 51 235 5 99 16 228 25 286 19 117 15 152 -19 171 -17 10 -248 14
-1087 18 -586 3 -1072 9 -1081 13 -8 4 -20 33 -27 65 -15 72 -70 188 -107 225
-39 38 -75 36 -125 -10z m1317 -463 c36 -106 -7 -290 -68 -290 -28 0 -32 20
-13 65 13 31 14 56 9 127 -6 74 -4 92 10 114 22 34 47 27 62 -16z m624 7 c64
-33 105 -80 94 -109 -9 -22 -50 -38 -95 -38 -73 0 -126 76 -106 154 9 35 30
33 107 -7z m275 10 c31 -27 46 -95 37 -172 -10 -87 -39 -112 -67 -57 -15 29
-76 222 -76 241 0 21 77 13 106 -12z m-2296 -28 c-46 -39 -103 -69 -133 -69
-31 0 -60 32 -55 62 4 28 32 35 143 37 l80 0 -35 -30z m1155 6 c37 -36 32 -70
-12 -94 -35 -18 -69 -13 -102 15 -38 32 -39 56 -5 83 37 29 89 27 119 -4z
m-361 -121 c19 -50 -2 -123 -52 -176 -35 -38 -65 -36 -91 6 -33 53 -28 80 29
136 52 53 101 67 114 34z m-1009 -13 c54 -34 99 -77 92 -88 -13 -21 -66 -26
-93 -8 -28 18 -58 79 -50 101 7 18 15 18 51 -5z m364 -43 c16 -42 -61 -158
-103 -158 -28 0 -79 51 -71 72 6 16 72 73 109 95 32 19 56 15 65 -9z"/>
<path d="M3635 3245 c-35 -34 -32 -70 9 -111 28 -28 41 -34 78 -34 24 0 49 -5
56 -12 18 -18 15 -55 -5 -63 -10 -4 -99 -11 -198 -16 -200 -10 -232 -14 -257
-37 -29 -25 -22 -57 20 -90 44 -36 39 -52 -28 -92 -67 -40 -85 -94 -56 -164
10 -24 25 -38 55 -49 49 -20 88 -22 94 -4 9 29 180 2 213 -34 23 -26 42 -24
116 11 34 16 69 30 76 30 27 0 52 -40 52 -83 0 -52 34 -123 73 -151 61 -45 77
3 102 313 9 112 21 228 26 258 13 68 9 79 -32 87 -24 5 -60 34 -138 115 -149
154 -203 180 -256 126z m-73 -346 c12 -19 24 -21 126 -24 68 -1 118 -7 124
-13 7 -7 12 -33 12 -59 1 -46 0 -48 -29 -51 -57 -7 -175 20 -207 46 -33 28
-72 98 -63 112 10 15 21 12 37 -11z"/>
<path d="M9846 3036 c-67 -25 -71 -54 -25 -168 31 -73 31 -78 16 -100 -10 -13
-33 -45 -52 -72 -52 -71 -49 -116 9 -172 79 -75 183 -81 263 -15 21 17 46 31
55 31 21 0 76 -72 85 -109 11 -50 103 -126 230 -190 71 -36 79 -37 93 -11 16
30 -11 73 -84 130 -35 28 -67 58 -71 68 -14 32 -17 237 -6 341 9 84 17 115 43
163 28 53 30 61 16 74 -27 27 -89 35 -313 40 -177 4 -228 2 -259 -10z m254
-132 c47 -19 72 -58 72 -112 0 -45 -22 -62 -79 -62 -31 0 -49 6 -64 21 -19 19
-21 29 -15 83 4 40 12 65 23 74 21 15 15 15 63 -4z m-140 -286 c11 -21 12 -32
4 -45 -25 -40 -84 -17 -84 31 0 51 54 60 80 14z"/>
<path d="M9261 3031 c-57 -7 -81 -27 -81 -67 0 -30 19 -36 133 -43 92 -7 100
-9 128 -38 44 -43 29 -66 -57 -93 -36 -11 -72 -20 -78 -20 -32 0 -118 -33
-146 -56 -37 -31 -39 -64 -7 -117 46 -75 130 -102 163 -52 9 14 24 25 34 25
34 0 95 -56 129 -119 35 -67 97 -121 137 -121 19 0 25 7 31 38 10 49 10 648 0
658 -10 11 -315 15 -386 5z"/>
<path d="M7829 3005 c-34 -22 -49 -43 -49 -66 0 -18 50 -40 111 -49 115 -18
129 -21 129 -29 0 -5 -30 -12 -67 -16 -112 -11 -188 -57 -219 -132 -20 -47
-17 -130 6 -182 28 -60 114 -165 158 -193 20 -12 65 -46 100 -75 69 -58 95
-64 136 -32 31 25 66 89 66 121 0 34 -56 125 -82 134 -13 4 -69 8 -126 8 -91
1 -105 3 -118 20 -23 32 -17 65 20 102 24 24 43 34 65 34 18 0 40 9 52 21 16
16 28 19 62 14 80 -11 121 32 136 143 10 80 22 102 54 102 20 0 20 1 -3 25
-40 43 -175 75 -315 75 -69 0 -85 -3 -116 -25z"/>
<path d="M60 790 l0 -780 6340 0 6340 0 0 780 0 780 -6340 0 -6340 0 0 -780z
m12380 0 l0 -540 -6030 0 -6030 0 0 540 0 540 6030 0 6030 0 0 -540z"/>
<path d="M10600 1201 c-55 -20 -130 -85 -130 -114 0 -35 27 -51 94 -55 l66 -4
0 -279 0 -279 110 0 110 0 0 280 0 280 53 0 c58 0 100 17 105 42 5 28 -74 105
-126 123 -75 27 -216 30 -282 6z"/>
<path d="M8712 1180 c-35 -4 -68 -12 -74 -18 -21 -21 -27 -104 -28 -394 l0
-298 70 0 c56 0 71 3 78 17 5 10 12 76 14 146 5 140 15 166 58 152 38 -12 98
-74 106 -108 4 -22 35 -60 95 -120 83 -84 90 -88 126 -85 54 4 53 29 -1 113
-25 39 -48 84 -52 101 -3 16 4 79 15 140 30 158 29 172 -21 230 -118 135 -163
149 -386 124z m250 -167 c52 -47 -3 -113 -94 -113 -59 0 -88 22 -88 66 0 30 5
37 33 49 45 20 126 19 149 -2z"/>
<path d="M9535 1171 c-51 -23 -111 -89 -125 -138 -14 -45 -1 -87 44 -140 49
-58 113 -93 171 -93 88 0 131 -53 101 -125 -20 -47 -41 -53 -74 -23 -42 39
-72 51 -133 52 -64 1 -89 -14 -89 -52 0 -79 151 -182 267 -182 57 0 88 17 146
79 60 64 107 161 107 220 0 39 -5 49 -42 83 -52 48 -183 114 -243 124 -25 3
-48 11 -52 17 -8 13 61 77 82 77 9 0 18 -7 21 -15 8 -19 88 -20 124 -2 38 19
38 58 0 90 -41 35 -89 47 -185 47 -56 0 -92 -6 -120 -19z"/>
<path d="M10090 830 l0 -360 95 0 95 0 0 360 0 360 -95 0 -95 0 0 -360z"/>
<path d="M8020 821 l0 -352 245 3 c257 3 265 4 265 48 0 39 -16 45 -146 50
-141 7 -154 13 -154 76 0 46 29 64 105 64 34 0 66 5 73 12 7 7 12 36 12 64 0
71 -15 84 -93 84 -34 0 -68 4 -76 9 -8 5 -16 32 -19 63 -6 81 4 88 136 88 133
0 156 10 160 66 5 67 1 68 -269 72 l-239 4 0 -351z"/>
<path d="M11162 1158 c-26 -26 -13 -73 41 -144 28 -38 76 -115 105 -170 29
-56 63 -112 74 -124 24 -25 36 -84 37 -171 1 -30 6 -60 13 -67 16 -16 124 -16
134 0 4 6 11 51 15 100 8 97 32 156 123 295 60 93 106 191 106 225 0 35 -33
58 -83 58 -53 0 -83 -21 -142 -97 -51 -66 -80 -93 -101 -93 -7 0 -48 34 -91
76 -108 104 -196 147 -231 112z"/>
<path d="M6260 805 l0 -335 133 0 c199 0 322 35 354 102 7 14 31 33 53 43 22
10 43 27 46 39 4 11 7 75 7 141 1 138 -11 175 -72 226 -95 79 -233 118 -418
119 l-103 0 0 -335z m348 161 c98 -50 113 -115 53 -235 -43 -83 -68 -101 -148
-101 l-65 0 3 171 c4 163 5 172 27 189 26 21 48 17 130 -24z"/>
<path d="M6960 805 l0 -335 95 0 95 0 0 335 0 335 -95 0 -95 0 0 -335z"/>
<path d="M7306 1124 c-43 -42 -3 -190 121 -445 66 -138 91 -180 115 -193 41
-25 72 -14 109 40 66 96 185 381 216 515 18 83 11 99 -48 99 -44 0 -79 -27
-79 -61 0 -54 -112 -239 -144 -239 -18 0 -109 134 -148 215 -31 68 -52 85
-103 85 -13 0 -31 -7 -39 -16z"/>
<path d="M3517 1099 c-25 -15 -49 -67 -41 -91 3 -11 42 -59 86 -107 132 -141
132 -141 136 -297 l4 -134 94 0 94 0 0 113 c0 138 10 174 69 260 87 128 111
171 111 202 0 39 -16 55 -52 55 -59 0 -137 -58 -172 -127 -9 -18 -27 -35 -40
-39 -47 -12 -69 0 -110 59 -67 95 -132 134 -179 106z"/>
<path d="M4720 790 l0 -320 95 0 95 0 0 320 0 320 -95 0 -95 0 0 -320z"/>
<path d="M5083 1102 c-25 -16 -33 -104 -33 -364 l0 -268 95 0 95 0 0 178 1
177 117 -120 c67 -68 125 -137 135 -160 32 -72 29 -70 106 -73 l71 -3 0 321 0
320 -95 0 -95 0 0 -150 0 -150 -137 121 c-136 119 -216 179 -237 179 -6 0 -16
-4 -23 -8z"/>
<path d="M950 936 c0 -240 38 -386 121 -461 50 -45 102 -58 230 -59 93 0 111
2 154 24 100 52 135 173 135 465 l0 185 -89 0 -88 0 -7 -77 c-3 -42 -6 -119
-6 -172 0 -53 -3 -126 -7 -163 l-6 -68 -102 0 c-121 0 -115 -8 -115 141 0 53
-3 151 -7 217 l-6 122 -104 0 -103 0 0 -154z"/>
<path d="M1730 766 l0 -326 95 0 95 0 0 134 c0 138 9 186 34 186 26 0 74 -49
161 -165 88 -116 132 -155 177 -155 51 0 53 9 56 343 l3 310 -81 -5 c-44 -3
-86 -10 -93 -17 -7 -7 -14 -54 -17 -111 -3 -55 -10 -104 -16 -110 -8 -8 -40
16 -115 87 -129 122 -159 141 -238 149 l-61 7 0 -327z"/>
<path d="M2487 1083 c-4 -3 -7 -150 -7 -325 l0 -318 95 0 95 0 0 325 0 325
-88 0 c-49 0 -92 -3 -95 -7z"/>
<path d="M2958 1066 c-51 -18 -84 -41 -104 -71 -33 -51 -6 -71 99 -74 l47 -1
0 -240 0 -240 95 0 95 0 0 223 c0 164 3 227 13 239 6 9 29 18 50 21 44 7 67
22 67 44 0 26 -73 90 -115 102 -55 15 -202 13 -247 -3z"/>
</g>
</svg>
